<svg version="1.2" xmlns="http://www.w3.org/2000/svg" viewBox="0 0 323 264" width="323" height="264"><defs><clipPath clipPathUnits="userSpaceOnUse" id="cp1"><path d="m71 20h191v166h-191z"/></clipPath><clipPath clipPathUnits="userSpaceOnUse" id="cp2"><path d="m75.29-2.5l189.6 7.31-7.1 184.36-189.61-7.31z"/></clipPath><clipPath clipPathUnits="userSpaceOnUse" id="cp3"><path d="m75.29-2.5l189.6 7.31-7.1 184.36-189.61-7.31z"/></clipPath><clipPath clipPathUnits="userSpaceOnUse" id="cp4"><path d="m77 1h179v179h-179z"/></clipPath><clipPath clipPathUnits="userSpaceOnUse" id="cp5"><path d="m75.29-2.5l189.6 7.31-7.1 184.36-189.61-7.31z"/></clipPath><clipPath clipPathUnits="userSpaceOnUse" id="cp6"><path d="m75.29-2.5l189.6 7.31-7.1 184.36-189.61-7.31z"/></clipPath><clipPath clipPathUnits="userSpaceOnUse" id="cp7"><path d="m96 48h3v4h-3z"/></clipPath><clipPath clipPathUnits="userSpaceOnUse" id="cp8"><path d="m75.29-2.5l189.6 7.31-7.1 184.36-189.61-7.31z"/></clipPath><clipPath clipPathUnits="userSpaceOnUse" id="cp9"><path d="m75.29-2.5l189.6 7.31-7.1 184.36-189.61-7.31z"/></clipPath><clipPath clipPathUnits="userSpaceOnUse" id="cp10"><path d="m93 54h3v4h-3z"/></clipPath><clipPath clipPathUnits="userSpaceOnUse" id="cp11"><path d="m75.29-2.5l189.6 7.31-7.1 184.36-189.61-7.31z"/></clipPath><clipPath clipPathUnits="userSpaceOnUse" id="cp12"><path d="m75.29-2.5l189.6 7.31-7.1 184.36-189.61-7.31z"/></clipPath><clipPath clipPathUnits="userSpaceOnUse" id="cp13"><path d="m100 42h3v4h-3z"/></clipPath><clipPath clipPathUnits="userSpaceOnUse" id="cp14"><path d="m75.29-2.5l189.6 7.31-7.1 184.36-189.61-7.31z"/></clipPath><clipPath clipPathUnits="userSpaceOnUse" id="cp15"><path d="m75.29-2.5l189.6 7.31-7.1 184.36-189.61-7.31z"/></clipPath><clipPath clipPathUnits="userSpaceOnUse" id="cp16"><path d="m87 74h2v4h-2z"/></clipPath><clipPath clipPathUnits="userSpaceOnUse" id="cp17"><path d="m75.29-2.5l189.6 7.31-7.1 184.36-189.61-7.31z"/></clipPath><clipPath clipPathUnits="userSpaceOnUse" id="cp18"><path d="m75.29-2.5l189.6 7.31-7.1 184.36-189.61-7.31z"/></clipPath><clipPath clipPathUnits="userSpaceOnUse" id="cp19"><path d="m86 81h2v4h-2z"/></clipPath><clipPath clipPathUnits="userSpaceOnUse" id="cp20"><path d="m75.29-2.5l189.6 7.31-7.1 184.36-189.61-7.31z"/></clipPath><clipPath clipPathUnits="userSpaceOnUse" id="cp21"><path d="m75.29-2.5l189.6 7.31-7.1 184.36-189.61-7.31z"/></clipPath><clipPath clipPathUnits="userSpaceOnUse" id="cp22"><path d="m194 15h4v3h-4z"/></clipPath><clipPath clipPathUnits="userSpaceOnUse" id="cp23"><path d="m75.29-2.5l189.6 7.31-7.1 184.36-189.61-7.31z"/></clipPath><clipPath clipPathUnits="userSpaceOnUse" id="cp24"><path d="m75.29-2.5l189.6 7.31-7.1 184.36-189.61-7.31z"/></clipPath><clipPath clipPathUnits="userSpaceOnUse" id="cp25"><path d="m104 37h4v3h-4z"/></clipPath><clipPath clipPathUnits="userSpaceOnUse" id="cp26"><path d="m75.29-2.5l189.6 7.31-7.1 184.36-189.61-7.31z"/></clipPath><clipPath clipPathUnits="userSpaceOnUse" id="cp27"><path d="m75.29-2.5l189.6 7.31-7.1 184.36-189.61-7.31z"/></clipPath><clipPath clipPathUnits="userSpaceOnUse" id="cp28"><path d="m109 31h4v4h-4z"/></clipPath><clipPath clipPathUnits="userSpaceOnUse" id="cp29"><path d="m75.29-2.5l189.6 7.31-7.1 184.36-189.61-7.31z"/></clipPath><clipPath clipPathUnits="userSpaceOnUse" id="cp30"><path d="m75.29-2.5l189.6 7.31-7.1 184.36-189.61-7.31z"/></clipPath><clipPath clipPathUnits="userSpaceOnUse" id="cp31"><path d="m88 109h3v4h-3z"/></clipPath><clipPath clipPathUnits="userSpaceOnUse" id="cp32"><path d="m75.29-2.5l189.6 7.31-7.1 184.36-189.61-7.31z"/></clipPath><clipPath clipPathUnits="userSpaceOnUse" id="cp33"><path d="m75.29-2.5l189.6 7.31-7.1 184.36-189.61-7.31z"/></clipPath><clipPath clipPathUnits="userSpaceOnUse" id="cp34"><path d="m88 67h3v4h-3z"/></clipPath><clipPath clipPathUnits="userSpaceOnUse" id="cp35"><path d="m75.29-2.5l189.6 7.31-7.1 184.36-189.61-7.31z"/></clipPath><clipPath clipPathUnits="userSpaceOnUse" id="cp36"><path d="m75.29-2.5l189.6 7.31-7.1 184.36-189.61-7.31z"/></clipPath><clipPath clipPathUnits="userSpaceOnUse" id="cp37"><path d="m86 95h2v4h-2z"/></clipPath><clipPath clipPathUnits="userSpaceOnUse" id="cp38"><path d="m75.29-2.5l189.6 7.31-7.1 184.36-189.61-7.31z"/></clipPath><clipPath clipPathUnits="userSpaceOnUse" id="cp39"><path d="m75.29-2.5l189.6 7.31-7.1 184.36-189.61-7.31z"/></clipPath><clipPath clipPathUnits="userSpaceOnUse" id="cp40"><path d="m187 12h4v3h-4z"/></clipPath><clipPath clipPathUnits="userSpaceOnUse" id="cp41"><path d="m75.29-2.5l189.6 7.31-7.1 184.36-189.61-7.31z"/></clipPath><clipPath clipPathUnits="userSpaceOnUse" id="cp42"><path d="m75.29-2.5l189.6 7.31-7.1 184.36-189.61-7.31z"/></clipPath><clipPath clipPathUnits="userSpaceOnUse" id="cp43"><path d="m87 102h2v4h-2z"/></clipPath><clipPath clipPathUnits="userSpaceOnUse" id="cp44"><path d="m75.29-2.5l189.6 7.31-7.1 184.36-189.61-7.31z"/></clipPath><clipPath clipPathUnits="userSpaceOnUse" id="cp45"><path d="m75.29-2.5l189.6 7.31-7.1 184.36-189.61-7.31z"/></clipPath><clipPath clipPathUnits="userSpaceOnUse" id="cp46"><path d="m90 61h3v3h-3z"/></clipPath><clipPath clipPathUnits="userSpaceOnUse" id="cp47"><path d="m75.29-2.5l189.6 7.31-7.1 184.36-189.61-7.31z"/></clipPath><clipPath clipPathUnits="userSpaceOnUse" id="cp48"><path d="m75.29-2.5l189.6 7.31-7.1 184.36-189.61-7.31z"/></clipPath><clipPath clipPathUnits="userSpaceOnUse" id="cp49"><path d="m201 18h3v3h-3z"/></clipPath><clipPath clipPathUnits="userSpaceOnUse" id="cp50"><path d="m75.29-2.5l189.6 7.31-7.1 184.36-189.61-7.31z"/></clipPath><clipPath clipPathUnits="userSpaceOnUse" id="cp51"><path d="m75.29-2.5l189.6 7.31-7.1 184.36-189.61-7.31z"/></clipPath><clipPath clipPathUnits="userSpaceOnUse" id="cp52"><path d="m86 88h2v4h-2z"/></clipPath><clipPath clipPathUnits="userSpaceOnUse" id="cp53"><path d="m75.29-2.5l189.6 7.31-7.1 184.36-189.61-7.31z"/></clipPath><clipPath clipPathUnits="userSpaceOnUse" id="cp54"><path d="m75.29-2.5l189.6 7.31-7.1 184.36-189.61-7.31z"/></clipPath><clipPath clipPathUnits="userSpaceOnUse" id="cp55"><path d="m223 34h4v4h-4z"/></clipPath><clipPath clipPathUnits="userSpaceOnUse" id="cp56"><path d="m75.29-2.5l189.6 7.31-7.1 184.36-189.61-7.31z"/></clipPath><clipPath clipPathUnits="userSpaceOnUse" id="cp57"><path d="m75.29-2.5l189.6 7.31-7.1 184.36-189.61-7.31z"/></clipPath><clipPath clipPathUnits="userSpaceOnUse" id="cp58"><path d="m181 11h3v2h-3z"/></clipPath><clipPath clipPathUnits="userSpaceOnUse" id="cp59"><path d="m75.29-2.5l189.6 7.31-7.1 184.36-189.61-7.31z"/></clipPath><clipPath clipPathUnits="userSpaceOnUse" id="cp60"><path d="m75.29-2.5l189.6 7.31-7.1 184.36-189.61-7.31z"/></clipPath><clipPath clipPathUnits="userSpaceOnUse" id="cp61"><path d="m114 27h4v3h-4z"/></clipPath><clipPath clipPathUnits="userSpaceOnUse" id="cp62"><path d="m75.29-2.5l189.6 7.31-7.1 184.36-189.61-7.31z"/></clipPath><clipPath clipPathUnits="userSpaceOnUse" id="cp63"><path d="m75.29-2.5l189.6 7.31-7.1 184.36-189.61-7.31z"/></clipPath><clipPath clipPathUnits="userSpaceOnUse" id="cp64"><path d="m90 116h3v4h-3z"/></clipPath><clipPath clipPathUnits="userSpaceOnUse" id="cp65"><path d="m75.29-2.5l189.6 7.31-7.1 184.36-189.61-7.31z"/></clipPath><clipPath clipPathUnits="userSpaceOnUse" id="cp66"><path d="m75.29-2.5l189.6 7.31-7.1 184.36-189.61-7.31z"/></clipPath><clipPath clipPathUnits="userSpaceOnUse" id="cp67"><path d="m245 92h3v2h-3z"/></clipPath><clipPath clipPathUnits="userSpaceOnUse" id="cp68"><path d="m75.29-2.5l189.6 7.31-7.1 184.36-189.61-7.31z"/></clipPath><clipPath clipPathUnits="userSpaceOnUse" id="cp69"><path d="m75.29-2.5l189.6 7.31-7.1 184.36-189.61-7.31z"/></clipPath><clipPath clipPathUnits="userSpaceOnUse" id="cp70"><path d="m120 23h4v3h-4z"/></clipPath><clipPath clipPathUnits="userSpaceOnUse" id="cp71"><path d="m75.29-2.5l189.6 7.31-7.1 184.36-189.61-7.31z"/></clipPath><clipPath clipPathUnits="userSpaceOnUse" id="cp72"><path d="m75.29-2.5l189.6 7.31-7.1 184.36-189.61-7.31z"/></clipPath><clipPath clipPathUnits="userSpaceOnUse" id="cp73"><path d="m245 93h2v3h-2z"/></clipPath><clipPath clipPathUnits="userSpaceOnUse" id="cp74"><path d="m75.29-2.5l189.6 7.31-7.1 184.36-189.61-7.31z"/></clipPath><clipPath clipPathUnits="userSpaceOnUse" id="cp75"><path d="m75.29-2.5l189.6 7.31-7.1 184.36-189.61-7.31z"/></clipPath><clipPath clipPathUnits="userSpaceOnUse" id="cp76"><path d="m174 10h3v2h-3z"/></clipPath><clipPath clipPathUnits="userSpaceOnUse" id="cp77"><path d="m75.29-2.5l189.6 7.31-7.1 184.36-189.61-7.31z"/></clipPath><clipPath clipPathUnits="userSpaceOnUse" id="cp78"><path d="m75.29-2.5l189.6 7.31-7.1 184.36-189.61-7.31z"/></clipPath><clipPath clipPathUnits="userSpaceOnUse" id="cp79"><path d="m126 19h4v3h-4z"/></clipPath><clipPath clipPathUnits="userSpaceOnUse" id="cp80"><path d="m75.29-2.5l189.6 7.31-7.1 184.36-189.61-7.31z"/></clipPath><clipPath clipPathUnits="userSpaceOnUse" id="cp81"><path d="m75.29-2.5l189.6 7.31-7.1 184.36-189.61-7.31z"/></clipPath><clipPath clipPathUnits="userSpaceOnUse" id="cp82"><path d="m187 166h4v2h-4z"/></clipPath><clipPath clipPathUnits="userSpaceOnUse" id="cp83"><path d="m75.29-2.5l189.6 7.31-7.1 184.36-189.61-7.31z"/></clipPath><clipPath clipPathUnits="userSpaceOnUse" id="cp84"><path d="m75.29-2.5l189.6 7.31-7.1 184.36-189.61-7.31z"/></clipPath><clipPath clipPathUnits="userSpaceOnUse" id="cp85"><path d="m239 58h3v3h-3z"/></clipPath><clipPath clipPathUnits="userSpaceOnUse" id="cp86"><path d="m75.29-2.5l189.6 7.31-7.1 184.36-189.61-7.31z"/></clipPath><clipPath clipPathUnits="userSpaceOnUse" id="cp87"><path d="m75.29-2.5l189.6 7.31-7.1 184.36-189.61-7.31z"/></clipPath><clipPath clipPathUnits="userSpaceOnUse" id="cp88"><path d="m180 167h4v3h-4z"/></clipPath><clipPath clipPathUnits="userSpaceOnUse" id="cp89"><path d="m75.29-2.5l189.6 7.31-7.1 184.36-189.61-7.31z"/></clipPath><clipPath clipPathUnits="userSpaceOnUse" id="cp90"><path d="m75.29-2.5l189.6 7.31-7.1 184.36-189.61-7.31z"/></clipPath><clipPath clipPathUnits="userSpaceOnUse" id="cp91"><path d="m173 168h4v3h-4z"/></clipPath><clipPath clipPathUnits="userSpaceOnUse" id="cp92"><path d="m75.29-2.5l189.6 7.31-7.1 184.36-189.61-7.31z"/></clipPath><clipPath clipPathUnits="userSpaceOnUse" id="cp93"><path d="m75.29-2.5l189.6 7.31-7.1 184.36-189.61-7.31z"/></clipPath><clipPath clipPathUnits="userSpaceOnUse" id="cp94"><path d="m243 71h3v4h-3z"/></clipPath><clipPath clipPathUnits="userSpaceOnUse" id="cp95"><path d="m75.29-2.5l189.6 7.31-7.1 184.36-189.61-7.31z"/></clipPath><clipPath clipPathUnits="userSpaceOnUse" id="cp96"><path d="m75.29-2.5l189.6 7.31-7.1 184.36-189.61-7.31z"/></clipPath><clipPath clipPathUnits="userSpaceOnUse" id="cp97"><path d="m241 64h3v4h-3z"/></clipPath><clipPath clipPathUnits="userSpaceOnUse" id="cp98"><path d="m75.29-2.5l189.6 7.31-7.1 184.36-189.61-7.31z"/></clipPath><clipPath clipPathUnits="userSpaceOnUse" id="cp99"><path d="m75.29-2.5l189.6 7.31-7.1 184.36-189.61-7.31z"/></clipPath><clipPath clipPathUnits="userSpaceOnUse" id="cp100"><path d="m232 45h3v4h-3z"/></clipPath><clipPath clipPathUnits="userSpaceOnUse" id="cp101"><path d="m75.29-2.5l189.6 7.31-7.1 184.36-189.61-7.31z"/></clipPath><clipPath clipPathUnits="userSpaceOnUse" id="cp102"><path d="m75.29-2.5l189.6 7.31-7.1 184.36-189.61-7.31z"/></clipPath><clipPath clipPathUnits="userSpaceOnUse" id="cp103"><path d="m236 51h3v4h-3z"/></clipPath><clipPath clipPathUnits="userSpaceOnUse" id="cp104"><path d="m75.29-2.5l189.6 7.31-7.1 184.36-189.61-7.31z"/></clipPath><clipPath clipPathUnits="userSpaceOnUse" id="cp105"><path d="m75.29-2.5l189.6 7.31-7.1 184.36-189.61-7.31z"/></clipPath><clipPath clipPathUnits="userSpaceOnUse" id="cp106"><path d="m223 143h3v4h-3z"/></clipPath><clipPath clipPathUnits="userSpaceOnUse" id="cp107"><path d="m75.29-2.5l189.6 7.31-7.1 184.36-189.61-7.31z"/></clipPath><clipPath clipPathUnits="userSpaceOnUse" id="cp108"><path d="m75.29-2.5l189.6 7.31-7.1 184.36-189.61-7.31z"/></clipPath><clipPath clipPathUnits="userSpaceOnUse" id="cp109"><path d="m241 113h3v4h-3z"/></clipPath><clipPath clipPathUnits="userSpaceOnUse" id="cp110"><path d="m75.29-2.5l189.6 7.31-7.1 184.36-189.61-7.31z"/></clipPath><clipPath clipPathUnits="userSpaceOnUse" id="cp111"><path d="m75.29-2.5l189.6 7.31-7.1 184.36-189.61-7.31z"/></clipPath><clipPath clipPathUnits="userSpaceOnUse" id="cp112"><path d="m166 169h4v2h-4z"/></clipPath><clipPath clipPathUnits="userSpaceOnUse" id="cp113"><path d="m75.29-2.5l189.6 7.31-7.1 184.36-189.61-7.31z"/></clipPath><clipPath clipPathUnits="userSpaceOnUse" id="cp114"><path d="m75.29-2.5l189.6 7.31-7.1 184.36-189.61-7.31z"/></clipPath><clipPath clipPathUnits="userSpaceOnUse" id="cp115"><path d="m239 120h3v3h-3z"/></clipPath><clipPath clipPathUnits="userSpaceOnUse" id="cp116"><path d="m75.29-2.5l189.6 7.31-7.1 184.36-189.61-7.31z"/></clipPath><clipPath clipPathUnits="userSpaceOnUse" id="cp117"><path d="m75.29-2.5l189.6 7.31-7.1 184.36-189.61-7.31z"/></clipPath><clipPath clipPathUnits="userSpaceOnUse" id="cp118"><path d="m232 132h3v4h-3z"/></clipPath><clipPath clipPathUnits="userSpaceOnUse" id="cp119"><path d="m75.29-2.5l189.6 7.31-7.1 184.36-189.61-7.31z"/></clipPath><clipPath clipPathUnits="userSpaceOnUse" id="cp120"><path d="m75.29-2.5l189.6 7.31-7.1 184.36-189.61-7.31z"/></clipPath><clipPath clipPathUnits="userSpaceOnUse" id="cp121"><path d="m93 122h3v4h-3z"/></clipPath><clipPath clipPathUnits="userSpaceOnUse" id="cp122"><path d="m75.29-2.5l189.6 7.31-7.1 184.36-189.61-7.31z"/></clipPath><clipPath clipPathUnits="userSpaceOnUse" id="cp123"><path d="m75.29-2.5l189.6 7.31-7.1 184.36-189.61-7.31z"/></clipPath><clipPath clipPathUnits="userSpaceOnUse" id="cp124"><path d="m212 153h4v3h-4z"/></clipPath><clipPath clipPathUnits="userSpaceOnUse" id="cp125"><path d="m75.29-2.5l189.6 7.31-7.1 184.36-189.61-7.31z"/></clipPath><clipPath clipPathUnits="userSpaceOnUse" id="cp126"><path d="m75.29-2.5l189.6 7.31-7.1 184.36-189.61-7.31z"/></clipPath><clipPath clipPathUnits="userSpaceOnUse" id="cp127"><path d="m194 163h4v3h-4z"/></clipPath><clipPath clipPathUnits="userSpaceOnUse" id="cp128"><path d="m75.29-2.5l189.6 7.31-7.1 184.36-189.61-7.31z"/></clipPath><clipPath clipPathUnits="userSpaceOnUse" id="cp129"><path d="m75.29-2.5l189.6 7.31-7.1 184.36-189.61-7.31z"/></clipPath><clipPath clipPathUnits="userSpaceOnUse" id="cp130"><path d="m228 138h3v3h-3z"/></clipPath><clipPath clipPathUnits="userSpaceOnUse" id="cp131"><path d="m75.29-2.5l189.6 7.31-7.1 184.36-189.61-7.31z"/></clipPath><clipPath clipPathUnits="userSpaceOnUse" id="cp132"><path d="m75.29-2.5l189.6 7.31-7.1 184.36-189.61-7.31z"/></clipPath><clipPath clipPathUnits="userSpaceOnUse" id="cp133"><path d="m200 160h4v3h-4z"/></clipPath><clipPath clipPathUnits="userSpaceOnUse" id="cp134"><path d="m75.29-2.5l189.6 7.31-7.1 184.36-189.61-7.31z"/></clipPath><clipPath clipPathUnits="userSpaceOnUse" id="cp135"><path d="m75.29-2.5l189.6 7.31-7.1 184.36-189.61-7.31z"/></clipPath><clipPath clipPathUnits="userSpaceOnUse" id="cp136"><path d="m244 78h3v4h-3z"/></clipPath><clipPath clipPathUnits="userSpaceOnUse" id="cp137"><path d="m75.29-2.5l189.6 7.31-7.1 184.36-189.61-7.31z"/></clipPath><clipPath clipPathUnits="userSpaceOnUse" id="cp138"><path d="m75.29-2.5l189.6 7.31-7.1 184.36-189.61-7.31z"/></clipPath><clipPath clipPathUnits="userSpaceOnUse" id="cp139"><path d="m207 157h3v3h-3z"/></clipPath><clipPath clipPathUnits="userSpaceOnUse" id="cp140"><path d="m75.29-2.5l189.6 7.31-7.1 184.36-189.61-7.31z"/></clipPath><clipPath clipPathUnits="userSpaceOnUse" id="cp141"><path d="m75.29-2.5l189.6 7.31-7.1 184.36-189.61-7.31z"/></clipPath><clipPath clipPathUnits="userSpaceOnUse" id="cp142"><path d="m245 85h3v4h-3z"/></clipPath><clipPath clipPathUnits="userSpaceOnUse" id="cp143"><path d="m75.29-2.5l189.6 7.31-7.1 184.36-189.61-7.31z"/></clipPath><clipPath clipPathUnits="userSpaceOnUse" id="cp144"><path d="m75.29-2.5l189.6 7.31-7.1 184.36-189.61-7.31z"/></clipPath><clipPath clipPathUnits="userSpaceOnUse" id="cp145"><path d="m145 166h4v3h-4z"/></clipPath><clipPath clipPathUnits="userSpaceOnUse" id="cp146"><path d="m75.29-2.5l189.6 7.31-7.1 184.36-189.61-7.31z"/></clipPath><clipPath clipPathUnits="userSpaceOnUse" id="cp147"><path d="m75.29-2.5l189.6 7.31-7.1 184.36-189.61-7.31z"/></clipPath><clipPath clipPathUnits="userSpaceOnUse" id="cp148"><path d="m120 155h3v3h-3z"/></clipPath><clipPath clipPathUnits="userSpaceOnUse" id="cp149"><path d="m75.29-2.5l189.6 7.31-7.1 184.36-189.61-7.31z"/></clipPath><clipPath clipPathUnits="userSpaceOnUse" id="cp150"><path d="m75.29-2.5l189.6 7.31-7.1 184.36-189.61-7.31z"/></clipPath><clipPath clipPathUnits="userSpaceOnUse" id="cp151"><path d="m109 146h3v3h-3z"/></clipPath><clipPath clipPathUnits="userSpaceOnUse" id="cp152"><path d="m75.29-2.5l189.6 7.31-7.1 184.36-189.61-7.31z"/></clipPath><clipPath clipPathUnits="userSpaceOnUse" id="cp153"><path d="m75.29-2.5l189.6 7.31-7.1 184.36-189.61-7.31z"/></clipPath><clipPath clipPathUnits="userSpaceOnUse" id="cp154"><path d="m114 150h4v4h-4z"/></clipPath><clipPath clipPathUnits="userSpaceOnUse" id="cp155"><path d="m75.29-2.5l189.6 7.31-7.1 184.36-189.61-7.31z"/></clipPath><clipPath clipPathUnits="userSpaceOnUse" id="cp156"><path d="m75.29-2.5l189.6 7.31-7.1 184.36-189.61-7.31z"/></clipPath><clipPath clipPathUnits="userSpaceOnUse" id="cp157"><path d="m126 158h3v4h-3z"/></clipPath><clipPath clipPathUnits="userSpaceOnUse" id="cp158"><path d="m75.29-2.5l189.6 7.31-7.1 184.36-189.61-7.31z"/></clipPath><clipPath clipPathUnits="userSpaceOnUse" id="cp159"><path d="m75.29-2.5l189.6 7.31-7.1 184.36-189.61-7.31z"/></clipPath><clipPath clipPathUnits="userSpaceOnUse" id="cp160"><path d="m243 106h3v4h-3z"/></clipPath><clipPath clipPathUnits="userSpaceOnUse" id="cp161"><path d="m75.29-2.5l189.6 7.31-7.1 184.36-189.61-7.31z"/></clipPath><clipPath clipPathUnits="userSpaceOnUse" id="cp162"><path d="m75.29-2.5l189.6 7.31-7.1 184.36-189.61-7.31z"/></clipPath><clipPath clipPathUnits="userSpaceOnUse" id="cp163"><path d="m96 129h3v3h-3z"/></clipPath><clipPath clipPathUnits="userSpaceOnUse" id="cp164"><path d="m75.29-2.5l189.6 7.31-7.1 184.36-189.61-7.31z"/></clipPath><clipPath clipPathUnits="userSpaceOnUse" id="cp165"><path d="m75.29-2.5l189.6 7.31-7.1 184.36-189.61-7.31z"/></clipPath><clipPath clipPathUnits="userSpaceOnUse" id="cp166"><path d="m207 21h3v3h-3z"/></clipPath><clipPath clipPathUnits="userSpaceOnUse" id="cp167"><path d="m75.29-2.5l189.6 7.31-7.1 184.36-189.61-7.31z"/></clipPath><clipPath clipPathUnits="userSpaceOnUse" id="cp168"><path d="m75.29-2.5l189.6 7.31-7.1 184.36-189.61-7.31z"/></clipPath><clipPath clipPathUnits="userSpaceOnUse" id="cp169"><path d="m100 135h3v3h-3z"/></clipPath><clipPath clipPathUnits="userSpaceOnUse" id="cp170"><path d="m75.29-2.5l189.6 7.31-7.1 184.36-189.61-7.31z"/></clipPath><clipPath clipPathUnits="userSpaceOnUse" id="cp171"><path d="m75.29-2.5l189.6 7.31-7.1 184.36-189.61-7.31z"/></clipPath><clipPath clipPathUnits="userSpaceOnUse" id="cp172"><path d="m104 140h4v4h-4z"/></clipPath><clipPath clipPathUnits="userSpaceOnUse" id="cp173"><path d="m75.29-2.5l189.6 7.31-7.1 184.36-189.61-7.31z"/></clipPath><clipPath clipPathUnits="userSpaceOnUse" id="cp174"><path d="m75.29-2.5l189.6 7.31-7.1 184.36-189.61-7.31z"/></clipPath><clipPath clipPathUnits="userSpaceOnUse" id="cp175"><path d="m132 162h4v3h-4z"/></clipPath><clipPath clipPathUnits="userSpaceOnUse" id="cp176"><path d="m75.29-2.5l189.6 7.31-7.1 184.36-189.61-7.31z"/></clipPath><clipPath clipPathUnits="userSpaceOnUse" id="cp177"><path d="m75.29-2.5l189.6 7.31-7.1 184.36-189.61-7.31z"/></clipPath><clipPath clipPathUnits="userSpaceOnUse" id="cp178"><path d="m228 40h3v3h-3z"/></clipPath><clipPath clipPathUnits="userSpaceOnUse" id="cp179"><path d="m75.29-2.5l189.6 7.31-7.1 184.36-189.61-7.31z"/></clipPath><clipPath clipPathUnits="userSpaceOnUse" id="cp180"><path d="m75.29-2.5l189.6 7.31-7.1 184.36-189.61-7.31z"/></clipPath><clipPath clipPathUnits="userSpaceOnUse" id="cp181"><path d="m218 148h3v4h-3z"/></clipPath><clipPath clipPathUnits="userSpaceOnUse" id="cp182"><path d="m75.29-2.5l189.6 7.31-7.1 184.36-189.61-7.31z"/></clipPath><clipPath clipPathUnits="userSpaceOnUse" id="cp183"><path d="m75.29-2.5l189.6 7.31-7.1 184.36-189.61-7.31z"/></clipPath><clipPath clipPathUnits="userSpaceOnUse" id="cp184"><path d="m244 99h3v4h-3z"/></clipPath><clipPath clipPathUnits="userSpaceOnUse" id="cp185"><path d="m75.29-2.5l189.6 7.31-7.1 184.36-189.61-7.31z"/></clipPath><clipPath clipPathUnits="userSpaceOnUse" id="cp186"><path d="m75.29-2.5l189.6 7.31-7.1 184.36-189.61-7.31z"/></clipPath><clipPath clipPathUnits="userSpaceOnUse" id="cp187"><path d="m218 29h4v4h-4z"/></clipPath><clipPath clipPathUnits="userSpaceOnUse" id="cp188"><path d="m75.29-2.5l189.6 7.31-7.1 184.36-189.61-7.31z"/></clipPath><clipPath clipPathUnits="userSpaceOnUse" id="cp189"><path d="m75.29-2.5l189.6 7.31-7.1 184.36-189.61-7.31z"/></clipPath><clipPath clipPathUnits="userSpaceOnUse" id="cp190"><path d="m235 126h4v4h-4z"/></clipPath><clipPath clipPathUnits="userSpaceOnUse" id="cp191"><path d="m75.29-2.5l189.6 7.31-7.1 184.36-189.61-7.31z"/></clipPath><clipPath clipPathUnits="userSpaceOnUse" id="cp192"><path d="m75.29-2.5l189.6 7.31-7.1 184.36-189.61-7.31z"/></clipPath><clipPath clipPathUnits="userSpaceOnUse" id="cp193"><path d="m213 25h3v3h-3z"/></clipPath><clipPath clipPathUnits="userSpaceOnUse" id="cp194"><path d="m75.29-2.5l189.6 7.31-7.1 184.36-189.61-7.31z"/></clipPath><clipPath clipPathUnits="userSpaceOnUse" id="cp195"><path d="m75.29-2.5l189.6 7.31-7.1 184.36-189.61-7.31z"/></clipPath><clipPath clipPathUnits="userSpaceOnUse" id="cp196"><path d="m139 164h3v3h-3z"/></clipPath><clipPath clipPathUnits="userSpaceOnUse" id="cp197"><path d="m75.29-2.5l189.6 7.31-7.1 184.36-189.61-7.31z"/></clipPath><clipPath clipPathUnits="userSpaceOnUse" id="cp198"><path d="m75.29-2.5l189.6 7.31-7.1 184.36-189.61-7.31z"/></clipPath><clipPath clipPathUnits="userSpaceOnUse" id="cp199"><path d="m152 168h4v2h-4z"/></clipPath><clipPath clipPathUnits="userSpaceOnUse" id="cp200"><path d="m75.29-2.5l189.6 7.31-7.1 184.36-189.61-7.31z"/></clipPath><clipPath clipPathUnits="userSpaceOnUse" id="cp201"><path d="m75.29-2.5l189.6 7.31-7.1 184.36-189.61-7.31z"/></clipPath><clipPath clipPathUnits="userSpaceOnUse" id="cp202"><path d="m159 169h4v2h-4z"/></clipPath><clipPath clipPathUnits="userSpaceOnUse" id="cp203"><path d="m75.29-2.5l189.6 7.31-7.1 184.36-189.61-7.31z"/></clipPath><clipPath clipPathUnits="userSpaceOnUse" id="cp204"><path d="m75.29-2.5l189.6 7.31-7.1 184.36-189.61-7.31z"/></clipPath><clipPath clipPathUnits="userSpaceOnUse" id="cp205"><path d="m90 14h129v153h-129z"/></clipPath><clipPath clipPathUnits="userSpaceOnUse" id="cp206"><path d="m75.29-2.5l189.6 7.31-7.1 184.36-189.61-7.31z"/></clipPath><clipPath clipPathUnits="userSpaceOnUse" id="cp207"><path d="m75.29-2.5l189.6 7.31-7.1 184.36-189.61-7.31z"/></clipPath><clipPath clipPathUnits="userSpaceOnUse" id="cp208"><path d="m207 36h16v17h-16z"/></clipPath><clipPath clipPathUnits="userSpaceOnUse" id="cp209"><path d="m75.29-2.5l189.6 7.31-7.1 184.36-189.61-7.31z"/></clipPath><clipPath clipPathUnits="userSpaceOnUse" id="cp210"><path d="m75.29-2.5l189.6 7.31-7.1 184.36-189.61-7.31z"/></clipPath><clipPath clipPathUnits="userSpaceOnUse" id="cp211"><path d="m209 138h5v4h-5z"/></clipPath><clipPath clipPathUnits="userSpaceOnUse" id="cp212"><path d="m75.29-2.5l189.6 7.31-7.1 184.36-189.61-7.31z"/></clipPath><clipPath clipPathUnits="userSpaceOnUse" id="cp213"><path d="m75.29-2.5l189.6 7.31-7.1 184.36-189.61-7.31z"/></clipPath><clipPath clipPathUnits="userSpaceOnUse" id="cp214"><path d="m211 125h14v16h-14z"/></clipPath><clipPath clipPathUnits="userSpaceOnUse" id="cp215"><path d="m75.29-2.5l189.6 7.31-7.1 184.36-189.61-7.31z"/></clipPath><clipPath clipPathUnits="userSpaceOnUse" id="cp216"><path d="m75.29-2.5l189.6 7.31-7.1 184.36-189.61-7.31z"/></clipPath><clipPath clipPathUnits="userSpaceOnUse" id="cp217"><path d="m228 65h8v22h-8z"/></clipPath><clipPath clipPathUnits="userSpaceOnUse" id="cp218"><path d="m75.29-2.5l189.6 7.31-7.1 184.36-189.61-7.31z"/></clipPath><clipPath clipPathUnits="userSpaceOnUse" id="cp219"><path d="m75.29-2.5l189.6 7.31-7.1 184.36-189.61-7.31z"/></clipPath><clipPath clipPathUnits="userSpaceOnUse" id="cp220"><path d="m142 152h21v7h-21z"/></clipPath><clipPath clipPathUnits="userSpaceOnUse" id="cp221"><path d="m75.29-2.5l189.6 7.31-7.1 184.36-189.61-7.31z"/></clipPath><clipPath clipPathUnits="userSpaceOnUse" id="cp222"><path d="m75.29-2.5l189.6 7.31-7.1 184.36-189.61-7.31z"/></clipPath><clipPath clipPathUnits="userSpaceOnUse" id="cp223"><path d="m177 148h21v10h-21z"/></clipPath><clipPath clipPathUnits="userSpaceOnUse" id="cp224"><path d="m75.29-2.5l189.6 7.31-7.1 184.36-189.61-7.31z"/></clipPath><clipPath clipPathUnits="userSpaceOnUse" id="cp225"><path d="m75.29-2.5l189.6 7.31-7.1 184.36-189.61-7.31z"/></clipPath><clipPath clipPathUnits="userSpaceOnUse" id="cp226"><path d="m113 131h17v16h-17z"/></clipPath><clipPath clipPathUnits="userSpaceOnUse" id="cp227"><path d="m75.29-2.5l189.6 7.31-7.1 184.36-189.61-7.31z"/></clipPath><clipPath clipPathUnits="userSpaceOnUse" id="cp228"><path d="m75.29-2.5l189.6 7.31-7.1 184.36-189.61-7.31z"/></clipPath><clipPath clipPathUnits="userSpaceOnUse" id="cp229"><path d="m174 22h22v9h-22z"/></clipPath><clipPath clipPathUnits="userSpaceOnUse" id="cp230"><path d="m75.29-2.5l189.6 7.31-7.1 184.36-189.61-7.31z"/></clipPath><clipPath clipPathUnits="userSpaceOnUse" id="cp231"><path d="m75.29-2.5l189.6 7.31-7.1 184.36-189.61-7.31z"/></clipPath><clipPath clipPathUnits="userSpaceOnUse" id="cp232"><path d="m104 28h125v125h-125z"/></clipPath><clipPath clipPathUnits="userSpaceOnUse" id="cp233"><path d="m75.29-2.5l189.6 7.31-7.1 184.36-189.61-7.31z"/></clipPath><clipPath clipPathUnits="userSpaceOnUse" id="cp234"><path d="m75.29-2.5l189.6 7.31-7.1 184.36-189.61-7.31z"/></clipPath><clipPath clipPathUnits="userSpaceOnUse" id="cp235"><path d="m205 53h12v15h-12z"/></clipPath><clipPath clipPathUnits="userSpaceOnUse" id="cp236"><path d="m75.29-2.5l189.6 7.31-7.1 184.36-189.61-7.31z"/></clipPath><clipPath clipPathUnits="userSpaceOnUse" id="cp237"><path d="m75.29-2.5l189.6 7.31-7.1 184.36-189.61-7.31z"/></clipPath><clipPath clipPathUnits="userSpaceOnUse" id="cp238"><path d="m216 74h6v17h-6z"/></clipPath><clipPath clipPathUnits="userSpaceOnUse" id="cp239"><path d="m75.29-2.5l189.6 7.31-7.1 184.36-189.61-7.31z"/></clipPath><clipPath clipPathUnits="userSpaceOnUse" id="cp240"><path d="m75.29-2.5l189.6 7.31-7.1 184.36-189.61-7.31z"/></clipPath><clipPath clipPathUnits="userSpaceOnUse" id="cp241"><path d="m117 53h11v15h-11z"/></clipPath><clipPath clipPathUnits="userSpaceOnUse" id="cp242"><path d="m75.29-2.5l189.6 7.31-7.1 184.36-189.61-7.31z"/></clipPath><clipPath clipPathUnits="userSpaceOnUse" id="cp243"><path d="m75.29-2.5l189.6 7.31-7.1 184.36-189.61-7.31z"/></clipPath><clipPath clipPathUnits="userSpaceOnUse" id="cp244"><path d="m113 102h9v16h-9z"/></clipPath><clipPath clipPathUnits="userSpaceOnUse" id="cp245"><path d="m75.29-2.5l189.6 7.31-7.1 184.36-189.61-7.31z"/></clipPath><clipPath clipPathUnits="userSpaceOnUse" id="cp246"><path d="m75.29-2.5l189.6 7.31-7.1 184.36-189.61-7.31z"/></clipPath><clipPath clipPathUnits="userSpaceOnUse" id="cp247"><path d="m158 35h17v4h-17z"/></clipPath><clipPath clipPathUnits="userSpaceOnUse" id="cp248"><path d="m75.29-2.5l189.6 7.31-7.1 184.36-189.61-7.31z"/></clipPath><clipPath clipPathUnits="userSpaceOnUse" id="cp249"><path d="m75.29-2.5l189.6 7.31-7.1 184.36-189.61-7.31z"/></clipPath><clipPath clipPathUnits="userSpaceOnUse" id="cp250"><path d="m184 38h16v11h-16z"/></clipPath><clipPath clipPathUnits="userSpaceOnUse" id="cp251"><path d="m75.29-2.5l189.6 7.31-7.1 184.36-189.61-7.31z"/></clipPath><clipPath clipPathUnits="userSpaceOnUse" id="cp252"><path d="m75.29-2.5l189.6 7.31-7.1 184.36-189.61-7.31z"/></clipPath><clipPath clipPathUnits="userSpaceOnUse" id="cp253"><path d="m134 38h16v10h-16z"/></clipPath><clipPath clipPathUnits="userSpaceOnUse" id="cp254"><path d="m75.29-2.5l189.6 7.31-7.1 184.36-189.61-7.31z"/></clipPath><clipPath clipPathUnits="userSpaceOnUse" id="cp255"><path d="m75.29-2.5l189.6 7.31-7.1 184.36-189.61-7.31z"/></clipPath><clipPath clipPathUnits="userSpaceOnUse" id="cp256"><path d="m111 76h6v17h-6z"/></clipPath><clipPath clipPathUnits="userSpaceOnUse" id="cp257"><path d="m75.29-2.5l189.6 7.31-7.1 184.36-189.61-7.31z"/></clipPath><clipPath clipPathUnits="userSpaceOnUse" id="cp258"><path d="m75.29-2.5l189.6 7.31-7.1 184.36-189.61-7.31z"/></clipPath><clipPath clipPathUnits="userSpaceOnUse" id="cp259"><path d="m125.73 52.42h81.75v81.58h-81.75z"/></clipPath></defs><style>.a{fill:#38b6ff}</style><g clip-path="url(#cp1)"><g clip-path="url(#cp2)"><g clip-path="url(#cp3)"><path  d="m231.1 159.9c18.5-17.2 29.3-40.6 30.3-65.9l-2.7-0.1c-0.9 24.6-11.4 47.3-29.4 64-18 16.7-41.7 25.5-66.2 24.5-24.6-0.9-47.4-11.4-64.1-29.4-16.7-18.1-25.5-41.6-24.5-66.2 0.9-24.6 11.4-47.4 29.5-64.1l-1.8-1.9c-18.6 17.2-29.4 40.6-30.4 65.9-0.9 25.3 8 49.5 25.2 68.1 17.2 18.6 40.6 29.3 66 30.3 25.2 1 49.5-8.1 68-25.2q0 0 0.1 0z"/></g></g></g><g clip-path="url(#cp4)"><g clip-path="url(#cp5)"><g clip-path="url(#cp6)"><path  d="m101.2 150.9q0.1 0 0.1 0c16.1 17.5 38.1 27.6 61.9 28.5 23.7 0.9 46.5-7.5 63.9-23.7 17.5-16.1 27.6-38.1 28.5-61.9l-4.6-0.2c-0.8 22.5-10.5 43.4-27 58.8-16.6 15.3-38.1 23.3-60.7 22.4-22.5-0.9-43.4-10.5-58.6-27-15.4-16.6-23.4-38.2-22.5-60.7 0.8-22.6 10.5-43.4 27-58.8 16.6-15.3 38.1-23.3 60.7-22.4 22.5 0.9 43.4 10.5 58.7 27 15.3 16.6 23.3 38.1 22.4 60.7l4.6 0.2c1-23.8-7.4-46.5-23.6-64q0 0.1 0 0 0 0-0.1 0c-16.1-17.4-38.1-27.6-61.9-28.5-23.7-0.9-46.4 7.5-63.9 23.6-17.5 16.2-27.6 38.2-28.5 62-0.9 23.7 7.5 46.5 23.6 64z"/></g></g></g><g clip-path="url(#cp7)"><g clip-path="url(#cp8)"><g clip-path="url(#cp9)"><path  d="m97.5 51.1c0.3 0 0.5-0.1 0.6-0.3 0.3-0.5 0.5-0.8 0.7-1.2 0.2-0.4 0.1-0.8-0.2-1-0.3-0.2-0.8-0.1-1 0.2q-0.4 0.6-0.7 1.3c-0.2 0.3-0.1 0.7 0.2 0.9q0.2 0.1 0.4 0.1z"/></g></g></g><g clip-path="url(#cp10)"><g clip-path="url(#cp11)"><g clip-path="url(#cp12)"><path  d="m94.2 57.4c0.3 0 0.6-0.2 0.7-0.4q0.3-0.6 0.6-1.3c0.1-0.3 0-0.8-0.3-0.9-0.4-0.2-0.8-0.1-1 0.3-0.2 0.4-0.4 0.8-0.6 1.3-0.2 0.3 0 0.8 0.3 0.9 0.1 0.1 0.2 0.1 0.3 0.1z"/></g></g></g><g clip-path="url(#cp13)"><g clip-path="url(#cp14)"><g clip-path="url(#cp15)"><path  d="m101.3 45.1c0.2 0.1 0.4 0 0.5-0.2 0.3-0.4 0.6-0.8 0.9-1.2 0.2-0.3 0.1-0.7-0.2-1-0.3-0.2-0.8-0.1-1 0.2-0.3 0.4-0.6 0.8-0.8 1.1-0.2 0.3-0.1 0.8 0.2 1 0.1 0.1 0.2 0.1 0.4 0.1z"/></g></g></g><g clip-path="url(#cp16)"><g clip-path="url(#cp17)"><g clip-path="url(#cp18)"><path  d="m87.5 75.3q-0.2 0.7-0.3 1.4c0 0.4 0.2 0.8 0.6 0.9q0.1 0 0.1 0c0.3 0 0.7-0.3 0.7-0.6 0.1-0.5 0.2-0.9 0.3-1.4 0-0.4-0.2-0.8-0.6-0.8-0.4-0.1-0.7 0.1-0.8 0.5z"/></g></g></g><g clip-path="url(#cp19)"><g clip-path="url(#cp20)"><g clip-path="url(#cp21)"><path  d="m86.5 82.4c0 0.4-0.1 0.9-0.1 1.4 0 0.4 0.2 0.7 0.6 0.7h0.1c0.4 0 0.7-0.3 0.7-0.6 0.1-0.5 0.1-1 0.1-1.4 0-0.4-0.2-0.7-0.6-0.8-0.4 0-0.8 0.3-0.8 0.7z"/></g></g></g><g clip-path="url(#cp22)"><g clip-path="url(#cp23)"><g clip-path="url(#cp24)"><path  d="m195.1 16.5q0.7 0.3 1.3 0.5 0.1 0.1 0.2 0.1c0.3 0 0.6-0.2 0.7-0.4 0.1-0.4 0-0.8-0.4-1-0.4-0.2-0.9-0.3-1.3-0.5-0.4-0.1-0.8 0.1-0.9 0.4-0.1 0.4 0 0.8 0.4 0.9z"/></g></g></g><g clip-path="url(#cp25)"><g clip-path="url(#cp26)"><g clip-path="url(#cp27)"><path  d="m106.2 39.3c0.3-0.3 0.6-0.7 0.9-1 0.2-0.3 0.2-0.8-0.1-1-0.3-0.3-0.7-0.3-1 0-0.3 0.4-0.6 0.7-0.9 1.1-0.3 0.3-0.2 0.7 0.1 1q0.2 0.2 0.4 0.2c0.2 0 0.4-0.1 0.6-0.3z"/></g></g></g><g clip-path="url(#cp28)"><g clip-path="url(#cp29)"><g clip-path="url(#cp30)"><path  d="m110.9 34.2c0.3-0.4 0.7-0.7 1-1 0.3-0.3 0.3-0.7 0-1-0.2-0.3-0.7-0.3-1 0-0.3 0.3-0.7 0.6-1 1-0.3 0.2-0.3 0.7 0 1 0.1 0.1 0.3 0.2 0.5 0.2 0.2 0 0.4-0.1 0.5-0.2z"/></g></g></g><g clip-path="url(#cp31)"><g clip-path="url(#cp32)"><g clip-path="url(#cp33)"><path  d="m89 112c0.1 0.3 0.4 0.5 0.7 0.5q0.1 0 0.2 0c0.4-0.1 0.6-0.5 0.5-0.9-0.1-0.4-0.2-0.9-0.4-1.3-0.1-0.4-0.5-0.6-0.8-0.5-0.4 0.1-0.6 0.4-0.5 0.8 0.1 0.5 0.2 1 0.3 1.4z"/></g></g></g><g clip-path="url(#cp34)"><g clip-path="url(#cp35)"><g clip-path="url(#cp36)"><path  d="m89.3 70.7c0 0 0.1 0 0.1 0 0.3 0 0.7-0.3 0.7-0.6 0.2-0.4 0.3-0.9 0.4-1.3 0.1-0.4-0.1-0.8-0.5-0.9-0.4-0.1-0.8 0.1-0.9 0.5q-0.2 0.7-0.3 1.4c-0.1 0.4 0.1 0.8 0.5 0.9z"/></g></g></g><g clip-path="url(#cp37)"><g clip-path="url(#cp38)"><g clip-path="url(#cp39)"><path  d="m86.5 98c0 0.4 0.3 0.6 0.7 0.6q0 0.1 0 0.1c0.4-0.1 0.7-0.4 0.6-0.8q0-0.7-0.1-1.4c0-0.4-0.3-0.7-0.7-0.7-0.4 0.1-0.7 0.4-0.6 0.8 0 0.4 0 0.9 0.1 1.4z"/></g></g></g><g clip-path="url(#cp40)"><g clip-path="url(#cp41)"><g clip-path="url(#cp42)"><path  d="m189.8 14.7c0.1 0 0.1 0.1 0.2 0.1 0.3 0 0.6-0.2 0.7-0.6 0.1-0.3-0.1-0.7-0.5-0.8q-0.7-0.2-1.3-0.4c-0.4-0.1-0.8 0.1-0.9 0.4-0.1 0.4 0.1 0.8 0.5 0.9q0.7 0.2 1.3 0.4z"/></g></g></g><g clip-path="url(#cp43)"><g clip-path="url(#cp44)"><g clip-path="url(#cp45)"><path  d="m87.4 105.1c0.1 0.3 0.4 0.5 0.7 0.5 0.1 0.1 0.1 0.1 0.2 0.1 0.4-0.1 0.6-0.5 0.5-0.9-0.1-0.5-0.2-0.9-0.2-1.4-0.1-0.3-0.4-0.6-0.8-0.5-0.4 0-0.7 0.4-0.6 0.8 0.1 0.5 0.2 0.9 0.2 1.4z"/></g></g></g><g clip-path="url(#cp46)"><g clip-path="url(#cp47)"><g clip-path="url(#cp48)"><path  d="m91.3 63.9q0.1 0 0.2 0c0.3 0 0.6-0.1 0.7-0.4 0.2-0.5 0.3-0.9 0.5-1.4 0.1-0.4-0.1-0.7-0.4-0.9-0.4-0.1-0.8 0.1-0.9 0.5q-0.3 0.6-0.6 1.3c-0.1 0.4 0.1 0.8 0.5 0.9z"/></g></g></g><g clip-path="url(#cp49)"><g clip-path="url(#cp50)"><g clip-path="url(#cp51)"><path  d="m202.7 20c0.2 0 0.2 0.1 0.3 0.1 0.3 0 0.6-0.2 0.7-0.4 0.2-0.4 0-0.8-0.3-1q-0.6-0.3-1.3-0.6c-0.3-0.2-0.7 0-0.9 0.3-0.2 0.4 0 0.8 0.3 1q0.6 0.3 1.2 0.6z"/></g></g></g><g clip-path="url(#cp52)"><g clip-path="url(#cp53)"><g clip-path="url(#cp54)"><path  d="m86.1 90.9c0 0.4 0.3 0.7 0.7 0.7 0.4 0 0.7-0.3 0.7-0.7q0-0.7 0-1.4c0.1-0.4-0.3-0.7-0.7-0.7-0.3 0-0.7 0.3-0.7 0.7 0 0.5 0 1 0 1.4z"/></g></g></g><g clip-path="url(#cp55)"><g clip-path="url(#cp56)"><g clip-path="url(#cp57)"><path  d="m224.7 36.7c0.1 0 0.2 0.2 0.2 0.2 0.2 0.2 0.3 0.2 0.5 0.2q0.3 0 0.5-0.2c0.3-0.2 0.3-0.7 0-1 0 0-0.1-0.2-0.2-0.2-0.3-0.3-0.5-0.5-0.7-0.8-0.3-0.3-0.7-0.3-1 0-0.3 0.2-0.3 0.7-0.1 1 0.3 0.2 0.5 0.5 0.8 0.8z"/></g></g></g><g clip-path="url(#cp58)"><g clip-path="url(#cp59)"><g clip-path="url(#cp60)"><path  d="m183.1 13q0 0 0.1 0c0.3 0 0.6-0.2 0.7-0.6 0.1-0.3-0.2-0.7-0.6-0.8q-0.6-0.1-1.4-0.3c-0.4-0.1-0.7 0.2-0.8 0.6-0.1 0.4 0.2 0.7 0.6 0.8q0.7 0.1 1.4 0.3z"/></g></g></g><g clip-path="url(#cp61)"><g clip-path="url(#cp62)"><g clip-path="url(#cp63)"><path  d="m116.1 29.4q0.5-0.4 1.1-0.8c0.3-0.3 0.3-0.7 0.1-1-0.3-0.3-0.7-0.4-1-0.1-0.4 0.3-0.8 0.5-1.1 0.9-0.3 0.2-0.4 0.7-0.1 1q0.2 0.2 0.5 0.2c0.2 0 0.4 0 0.5-0.2z"/></g></g></g><g clip-path="url(#cp64)"><g clip-path="url(#cp65)"><g clip-path="url(#cp66)"><path  d="m91.2 116.5c-0.4 0.2-0.6 0.6-0.4 0.9 0.2 0.5 0.3 0.9 0.5 1.4 0.1 0.2 0.3 0.4 0.6 0.4 0.1 0 0.2 0 0.3 0 0.3-0.1 0.5-0.6 0.4-0.9q-0.3-0.7-0.5-1.3c-0.1-0.4-0.5-0.6-0.9-0.5z"/></g></g></g><g clip-path="url(#cp67)"><g clip-path="url(#cp68)"><g clip-path="url(#cp69)"><path  d="m247 93.3c0.1-0.4-0.2-0.7-0.6-0.7-0.4-0.1-0.7 0.2-0.7 0.6v0.2h1.4z"/></g></g></g><g clip-path="url(#cp70)"><g clip-path="url(#cp71)"><g clip-path="url(#cp72)"><path  d="m121.6 25.2c0.4-0.2 0.8-0.5 1.2-0.8 0.3-0.2 0.4-0.6 0.2-1-0.2-0.3-0.7-0.4-1-0.1-0.4 0.2-0.8 0.5-1.2 0.8-0.3 0.2-0.4 0.6-0.2 0.9 0.2 0.2 0.4 0.4 0.6 0.4q0.3 0 0.4-0.2z"/></g></g></g><g clip-path="url(#cp73)"><g clip-path="url(#cp74)"><g clip-path="url(#cp75)"><path  d="m246.9 94.9c0.1-0.5 0.1-1 0.1-1.4l-1.4-0.1q0 0.7 0 1.4c-0.1 0.4 0.2 0.7 0.6 0.8 0.4 0 0.7-0.3 0.7-0.7z"/></g></g></g><g clip-path="url(#cp76)"><g clip-path="url(#cp77)"><g clip-path="url(#cp78)"><path  d="m176.3 10.4c-0.5 0-1-0.1-1.4-0.2-0.4 0-0.8 0.3-0.8 0.7 0 0.4 0.3 0.8 0.7 0.8q0.6 0.1 1.3 0.1c0.1 0 0.1 0 0.1 0 0.4 0.1 0.7-0.2 0.7-0.6 0.1-0.4-0.2-0.7-0.6-0.8z"/></g></g></g><g clip-path="url(#cp79)"><g clip-path="url(#cp80)"><g clip-path="url(#cp81)"><path  d="m127.2 21.6c0.1 0 0.3 0 0.4-0.1 0.4-0.2 0.8-0.5 1.2-0.7 0.4-0.2 0.5-0.6 0.3-0.9-0.2-0.4-0.6-0.5-1-0.3-0.4 0.2-0.8 0.5-1.2 0.7-0.4 0.2-0.5 0.6-0.3 0.9 0.2 0.3 0.4 0.4 0.6 0.4z"/></g></g></g><g clip-path="url(#cp82)"><g clip-path="url(#cp83)"><g clip-path="url(#cp84)"><path  d="m189.5 166.1q-0.7 0.2-1.4 0.4c-0.4 0.1-0.6 0.5-0.5 0.8 0.1 0.4 0.4 0.6 0.7 0.6q0.1 0 0.2-0.1c0.5-0.1 0.9-0.2 1.4-0.4 0.4-0.1 0.6-0.5 0.4-0.8 0-0.4-0.4-0.6-0.8-0.5z"/></g></g></g><g clip-path="url(#cp85)"><g clip-path="url(#cp86)"><g clip-path="url(#cp87)"><path  d="m241.1 59.9q-0.2-0.7-0.5-1.3c-0.2-0.4-0.6-0.5-1-0.4-0.3 0.2-0.5 0.6-0.4 1q0.4 0.6 0.6 1.2c0.1 0.3 0.4 0.4 0.6 0.5 0.2 0 0.2-0.1 0.4-0.1 0.3-0.1 0.5-0.6 0.3-0.9z"/></g></g></g><g clip-path="url(#cp88)"><g clip-path="url(#cp89)"><g clip-path="url(#cp90)"><path  d="m182.7 167.8q-0.7 0.2-1.3 0.3c-0.4 0-0.6 0.4-0.6 0.8 0.1 0.3 0.4 0.5 0.7 0.5 0 0 0.1 0.1 0.1 0.1q0.7-0.2 1.4-0.3c0.4-0.1 0.7-0.5 0.6-0.9-0.1-0.4-0.5-0.6-0.9-0.5z"/></g></g></g><g clip-path="url(#cp91)"><g clip-path="url(#cp92)"><g clip-path="url(#cp93)"><path  d="m175.8 168.9q-0.7 0.1-1.4 0.2c-0.4 0-0.7 0.4-0.6 0.7 0 0.4 0.3 0.7 0.6 0.7q0.1 0 0.2 0c0.4-0.1 0.9-0.1 1.4-0.1 0.4-0.1 0.7-0.4 0.6-0.8 0-0.5-0.4-0.7-0.8-0.7z"/></g></g></g><g clip-path="url(#cp94)"><g clip-path="url(#cp95)"><g clip-path="url(#cp96)"><path  d="m245.1 72.1c-0.2-0.4-0.5-0.7-0.9-0.6-0.4 0.1-0.6 0.5-0.5 0.9q0.1 0.7 0.2 1.4c0.1 0.3 0.4 0.5 0.7 0.5 0.1 0 0.1 0 0.2 0 0.4-0.1 0.6-0.5 0.5-0.8q-0.1-0.7-0.2-1.4z"/></g></g></g><g clip-path="url(#cp97)"><g clip-path="url(#cp98)"><g clip-path="url(#cp99)"><path  d="m243.5 66.6c-0.1-0.5-0.3-0.9-0.5-1.4-0.1-0.4-0.5-0.6-0.9-0.5-0.3 0.2-0.5 0.6-0.4 0.9 0.2 0.5 0.3 0.9 0.5 1.4 0.1 0.3 0.3 0.4 0.6 0.5q0.1 0 0.2-0.1c0.4-0.1 0.6-0.5 0.5-0.8z"/></g></g></g><g clip-path="url(#cp100)"><g clip-path="url(#cp101)"><g clip-path="url(#cp102)"><path  d="m234 48.3q0.2 0 0.4-0.1c0.3-0.2 0.4-0.6 0.2-1q-0.4-0.5-0.8-1.1c-0.2-0.4-0.6-0.4-1-0.2-0.3 0.2-0.4 0.6-0.2 1q0.4 0.5 0.8 1.1 0.2 0.3 0.6 0.3z"/></g></g></g><g clip-path="url(#cp103)"><g clip-path="url(#cp104)"><g clip-path="url(#cp105)"><path  d="m238.2 53.4c-0.3-0.4-0.5-0.8-0.7-1.2-0.2-0.4-0.6-0.5-1-0.3-0.3 0.2-0.5 0.6-0.2 1q0.3 0.5 0.6 1.2c0.1 0.2 0.4 0.3 0.6 0.3q0.2 0 0.3 0c0.4-0.2 0.5-0.6 0.4-1z"/></g></g></g><g clip-path="url(#cp106)"><g clip-path="url(#cp107)"><g clip-path="url(#cp108)"><path  d="m224.2 146.3q0.3 0 0.5-0.2c0.4-0.4 0.7-0.7 1-1.1 0.3-0.3 0.3-0.7 0-1-0.3-0.2-0.8-0.2-1 0.1q-0.5 0.5-1 1c-0.3 0.3-0.3 0.7 0 1q0.3 0.2 0.5 0.2z"/></g></g></g><g clip-path="url(#cp109)"><g clip-path="url(#cp110)"><g clip-path="url(#cp111)"><path  d="m242.1 116.2c0.1 0 0.1 0.1 0.2 0.1 0.3 0 0.6-0.2 0.7-0.5 0.1-0.4 0.3-0.9 0.4-1.4 0.1-0.3-0.1-0.7-0.4-0.9-0.4-0.1-0.8 0.1-0.9 0.5-0.2 0.5-0.3 0.9-0.5 1.3-0.1 0.4 0.1 0.8 0.5 0.9z"/></g></g></g><g clip-path="url(#cp112)"><g clip-path="url(#cp113)"><g clip-path="url(#cp114)"><path  d="m168.8 169.4q-0.7 0.1-1.4 0c-0.3 0-0.7 0.4-0.6 0.8-0.1 0.3 0.3 0.7 0.6 0.7h0.1c0.4 0 0.9 0 1.4-0.1 0.4 0 0.7-0.3 0.7-0.7-0.1-0.4-0.4-0.7-0.8-0.7z"/></g></g></g><g clip-path="url(#cp115)"><g clip-path="url(#cp116)"><g clip-path="url(#cp117)"><path  d="m240.6 120.2c-0.3-0.1-0.8 0-0.9 0.4-0.2 0.4-0.4 0.9-0.6 1.3-0.1 0.3 0 0.8 0.4 0.9 0.1 0.1 0.1 0.1 0.2 0.1 0.3 0 0.6-0.2 0.7-0.5 0.2-0.4 0.4-0.8 0.6-1.3 0.1-0.3 0-0.7-0.4-0.9z"/></g></g></g><g clip-path="url(#cp118)"><g clip-path="url(#cp119)"><g clip-path="url(#cp120)"><path  d="m232.6 135.1q0.2 0.2 0.4 0.2c0.2 0 0.5-0.1 0.6-0.3 0.3-0.5 0.6-0.8 0.8-1.2 0.2-0.4 0.1-0.8-0.2-1-0.4-0.2-0.8-0.1-1 0.2-0.2 0.4-0.5 0.8-0.8 1.2-0.2 0.3-0.1 0.7 0.2 0.9z"/></g></g></g><g clip-path="url(#cp121)"><g clip-path="url(#cp122)"><g clip-path="url(#cp123)"><path  d="m93.8 123.1c-0.4 0.1-0.5 0.6-0.4 0.9 0.3 0.4 0.4 0.9 0.7 1.3 0.1 0.2 0.3 0.4 0.6 0.4q0.1 0 0.3-0.1c0.4-0.1 0.5-0.5 0.3-0.9q-0.3-0.6-0.6-1.3c-0.1-0.3-0.6-0.5-0.9-0.3z"/></g></g></g><g clip-path="url(#cp124)"><g clip-path="url(#cp125)"><g clip-path="url(#cp126)"><path  d="m214.3 153.4c-0.4 0.3-0.8 0.6-1.1 0.9-0.3 0.2-0.4 0.7-0.2 1q0.3 0.3 0.6 0.3 0.2 0 0.4-0.2c0.4-0.3 0.7-0.5 1.1-0.8 0.4-0.2 0.4-0.7 0.2-1-0.3-0.3-0.7-0.4-1-0.2z"/></g></g></g><g clip-path="url(#cp127)"><g clip-path="url(#cp128)"><g clip-path="url(#cp129)"><path  d="m196.1 163.7q-0.7 0.3-1.3 0.6c-0.4 0.1-0.6 0.5-0.4 0.9 0.1 0.2 0.3 0.4 0.6 0.4 0.1 0 0.2 0 0.3 0 0.4-0.2 0.9-0.4 1.3-0.5 0.4-0.2 0.5-0.6 0.4-0.9-0.1-0.4-0.6-0.6-0.9-0.5z"/></g></g></g><g clip-path="url(#cp130)"><g clip-path="url(#cp131)"><g clip-path="url(#cp132)"><path  d="m229.2 138.7q-0.5 0.6-0.9 1.1c-0.2 0.3-0.2 0.8 0.1 1 0.2 0.1 0.3 0.2 0.5 0.2 0.2 0 0.4-0.1 0.5-0.3 0.3-0.4 0.6-0.7 0.9-1.1 0.2-0.3 0.2-0.8-0.1-1-0.3-0.3-0.8-0.2-1 0.1z"/></g></g></g><g clip-path="url(#cp133)"><g clip-path="url(#cp134)"><g clip-path="url(#cp135)"><path  d="m202.5 160.9c-0.5 0.2-0.9 0.4-1.3 0.6-0.3 0.2-0.5 0.6-0.3 0.9 0.1 0.3 0.3 0.4 0.6 0.4q0.1 0 0.3 0 0.7-0.3 1.3-0.7c0.3-0.2 0.5-0.6 0.3-0.9-0.2-0.4-0.6-0.5-0.9-0.3z"/></g></g></g><g clip-path="url(#cp136)"><g clip-path="url(#cp137)"><g clip-path="url(#cp138)"><path  d="m246.3 79.1c0-0.4-0.4-0.7-0.8-0.7-0.4 0.1-0.6 0.5-0.6 0.9q0.1 0.7 0.2 1.4c0 0.3 0.3 0.5 0.7 0.6q0 0 0.1 0c0.4-0.1 0.7-0.4 0.6-0.8q-0.1-0.7-0.2-1.4z"/></g></g></g><g clip-path="url(#cp139)"><g clip-path="url(#cp140)"><g clip-path="url(#cp141)"><path  d="m208.5 157.4q-0.6 0.4-1.2 0.7c-0.3 0.3-0.4 0.7-0.2 1q0.2 0.3 0.6 0.3c0.1 0 0.2 0 0.4-0.1 0.4-0.2 0.8-0.5 1.2-0.7 0.3-0.3 0.4-0.7 0.2-1-0.2-0.3-0.6-0.4-1-0.2z"/></g></g></g><g clip-path="url(#cp142)"><g clip-path="url(#cp143)"><g clip-path="url(#cp144)"><path  d="m245.6 86.2q0 0.7 0 1.4c0.1 0.4 0.4 0.7 0.7 0.7 0.4 0 0.8-0.4 0.7-0.8 0-0.4 0-0.9 0-1.4-0.1-0.4-0.4-0.7-0.8-0.7-0.4 0.1-0.6 0.4-0.6 0.8z"/></g></g></g><g clip-path="url(#cp145)"><g clip-path="url(#cp146)"><g clip-path="url(#cp147)"><path  d="m146.6 166.9c-0.3-0.1-0.7 0.1-0.8 0.5-0.1 0.4 0.1 0.8 0.5 0.9 0.4 0.1 0.9 0.2 1.4 0.3q0 0 0.1 0.1c0.4 0 0.6-0.3 0.7-0.6 0.1-0.4-0.1-0.8-0.5-0.9-0.4-0.1-0.9-0.2-1.4-0.3z"/></g></g></g><g clip-path="url(#cp148)"><g clip-path="url(#cp149)"><g clip-path="url(#cp150)"><path  d="m121.4 155.2c-0.4-0.2-0.8-0.1-1 0.2-0.2 0.4-0.2 0.8 0.2 1 0.4 0.3 0.8 0.5 1.1 0.8q0.2 0.1 0.4 0.2c0.3 0 0.5-0.1 0.7-0.4 0.1-0.3 0-0.7-0.3-1-0.3-0.2-0.8-0.5-1.1-0.8z"/></g></g></g><g clip-path="url(#cp151)"><g clip-path="url(#cp152)"><g clip-path="url(#cp153)"><path  d="m109.6 146.3c-0.2 0.2-0.2 0.7 0 1 0.4 0.3 0.7 0.6 1 1q0.3 0.1 0.5 0.2 0.3 0 0.5-0.2c0.3-0.3 0.3-0.8 0-1q-0.5-0.6-1-1c-0.2-0.3-0.7-0.3-1 0z"/></g></g></g><g clip-path="url(#cp154)"><g clip-path="url(#cp155)"><g clip-path="url(#cp156)"><path  d="m115.8 151c-0.3-0.3-0.8-0.2-1 0.1-0.2 0.3-0.2 0.7 0.1 1q0.5 0.4 1.1 0.9c0.1 0 0.3 0.1 0.4 0.1 0.2 0 0.4-0.1 0.6-0.2 0.2-0.4 0.2-0.8-0.1-1-0.4-0.3-0.7-0.6-1.1-0.9z"/></g></g></g><g clip-path="url(#cp157)"><g clip-path="url(#cp158)"><g clip-path="url(#cp159)"><path  d="m127.3 159c-0.3-0.2-0.8-0.1-1 0.2-0.2 0.4 0 0.8 0.3 1 0.4 0.3 0.8 0.5 1.2 0.7 0.2 0.1 0.2 0.1 0.3 0.1 0.3 0 0.5-0.1 0.7-0.4 0.1-0.3 0-0.7-0.3-0.9-0.4-0.2-0.8-0.5-1.2-0.7z"/></g></g></g><g clip-path="url(#cp160)"><g clip-path="url(#cp161)"><g clip-path="url(#cp162)"><path  d="m244.1 109.5q0.1 0 0.2 0c0.3 0 0.6-0.2 0.7-0.5 0.1-0.5 0.2-0.9 0.3-1.4 0-0.4-0.2-0.8-0.6-0.9-0.4-0.1-0.8 0.2-0.8 0.6q-0.1 0.7-0.3 1.3c-0.1 0.4 0.1 0.8 0.5 0.9z"/></g></g></g><g clip-path="url(#cp163)"><g clip-path="url(#cp164)"><g clip-path="url(#cp165)"><path  d="m97 129.3c-0.4 0.2-0.5 0.7-0.3 1 0.3 0.4 0.5 0.8 0.7 1.2q0.3 0.3 0.6 0.3c0.1 0 0.3 0 0.4-0.1 0.3-0.2 0.4-0.6 0.2-0.9q-0.3-0.5-0.7-1.2c-0.2-0.3-0.6-0.4-0.9-0.3z"/></g></g></g><g clip-path="url(#cp166)"><g clip-path="url(#cp167)"><g clip-path="url(#cp168)"><path  d="m209.6 22.3q-0.6-0.4-1.2-0.8c-0.4-0.2-0.8-0.1-1 0.3-0.2 0.3-0.1 0.7 0.2 0.9 0.5 0.3 0.8 0.5 1.2 0.8 0.2 0.1 0.3 0.1 0.4 0.1 0.2 0 0.5-0.1 0.6-0.4 0.2-0.3 0.1-0.7-0.2-0.9z"/></g></g></g><g clip-path="url(#cp169)"><g clip-path="url(#cp170)"><g clip-path="url(#cp171)"><path  d="m100.7 135.3c-0.3 0.2-0.4 0.7-0.2 1q0.4 0.6 0.8 1.2 0.2 0.3 0.5 0.3 0.3 0 0.5-0.2c0.3-0.2 0.3-0.7 0.1-1-0.2-0.3-0.4-0.7-0.7-1.1-0.3-0.3-0.7-0.4-1-0.2z"/></g></g></g><g clip-path="url(#cp172)"><g clip-path="url(#cp173)"><g clip-path="url(#cp174)"><path  d="m104.9 141c-0.3 0.3-0.3 0.7-0.1 1 0.3 0.3 0.7 0.7 1 1.1 0.1 0.1 0.3 0.2 0.4 0.2q0.3 0 0.6-0.2c0.3-0.2 0.3-0.6 0-1-0.3-0.3-0.6-0.7-0.9-1-0.2-0.3-0.7-0.4-1-0.1z"/></g></g></g><g clip-path="url(#cp175)"><g clip-path="url(#cp176)"><g clip-path="url(#cp177)"><path  d="m133.5 162.2c-0.4-0.2-0.8 0-1 0.3-0.1 0.4 0.1 0.8 0.4 1 0.4 0.2 0.9 0.3 1.3 0.6q0.1 0 0.2 0c0.3 0 0.6-0.1 0.7-0.4 0.2-0.3 0-0.8-0.3-0.9-0.4-0.2-0.9-0.4-1.3-0.6z"/></g></g></g><g clip-path="url(#cp178)"><g clip-path="url(#cp179)"><g clip-path="url(#cp180)"><path  d="m229.4 42.3c0.1 0.1 0.3 0.3 0.5 0.3q0.2 0 0.5-0.2c0.3-0.2 0.4-0.6 0.1-1q-0.4-0.5-0.9-1.1c-0.2-0.3-0.7-0.3-1-0.1-0.3 0.3-0.4 0.7-0.1 1 0.3 0.3 0.6 0.7 0.9 1.1z"/></g></g></g><g clip-path="url(#cp181)"><g clip-path="url(#cp182)"><g clip-path="url(#cp183)"><path  d="m219.7 149c-0.4 0.3-0.7 0.6-1.1 0.9-0.3 0.3-0.3 0.7-0.1 1q0.3 0.3 0.5 0.3 0.3 0 0.5-0.2 0.6-0.5 1.1-1c0.3-0.2 0.3-0.7 0.1-1-0.3-0.2-0.8-0.3-1 0z"/></g></g></g><g clip-path="url(#cp184)"><g clip-path="url(#cp185)"><g clip-path="url(#cp186)"><path  d="m246.2 102c0.1-0.5 0.2-1 0.3-1.4 0-0.5-0.3-0.8-0.7-0.8-0.4-0.1-0.7 0.2-0.8 0.6q0 0.7-0.1 1.4c-0.1 0.3 0.2 0.7 0.6 0.8 0 0 0 0 0 0 0.4 0 0.7-0.3 0.7-0.6z"/></g></g></g><g clip-path="url(#cp187)"><g clip-path="url(#cp188)"><g clip-path="url(#cp189)"><path  d="m220.4 32.1q0.3 0 0.5-0.2c0.3-0.3 0.3-0.7 0-1q-0.5-0.5-1.1-1c-0.3-0.2-0.7-0.2-1 0.1-0.3 0.3-0.2 0.7 0.1 1q0.5 0.5 1 0.9c0.2 0.2 0.3 0.2 0.5 0.2z"/></g></g></g><g clip-path="url(#cp190)"><g clip-path="url(#cp191)"><g clip-path="url(#cp192)"><path  d="m237.7 126.6c-0.4-0.1-0.8 0-1 0.4-0.2 0.4-0.4 0.8-0.6 1.2-0.2 0.3-0.1 0.8 0.2 1 0.2 0 0.2 0.1 0.4 0.1 0.2 0 0.5-0.2 0.6-0.4q0.3-0.6 0.6-1.2c0.3-0.5 0.1-0.9-0.2-1.1z"/></g></g></g><g clip-path="url(#cp193)"><g clip-path="url(#cp194)"><g clip-path="url(#cp195)"><path  d="m214.6 27.5q0.1 0.1 0.4 0.1 0.3 0 0.6-0.3c0.2-0.3 0.2-0.7-0.1-1q-0.6-0.4-1.2-0.8c-0.3-0.3-0.8-0.2-1 0.1-0.2 0.4-0.1 0.8 0.2 1q0.5 0.4 1.1 0.9z"/></g></g></g><g clip-path="url(#cp196)"><g clip-path="url(#cp197)"><g clip-path="url(#cp198)"><path  d="m140 164.8c-0.4-0.1-0.8 0.1-0.9 0.5-0.2 0.4 0 0.7 0.4 0.9 0.4 0.1 0.9 0.3 1.3 0.5 0.1 0 0.1 0 0.2 0 0.3 0 0.6-0.2 0.7-0.5 0.2-0.4 0-0.8-0.4-0.9-0.5-0.1-0.9-0.3-1.3-0.5z"/></g></g></g><g clip-path="url(#cp199)"><g clip-path="url(#cp200)"><g clip-path="url(#cp201)"><path  d="m153.5 168.4c-0.4-0.1-0.7 0.2-0.8 0.6-0.1 0.3 0.2 0.7 0.6 0.8 0.4 0.1 0.9 0.1 1.4 0.2 0 0 0 0 0.1 0 0.3 0 0.6-0.2 0.7-0.6 0-0.4-0.2-0.8-0.6-0.8-0.5-0.1-0.9-0.2-1.4-0.2z"/></g></g></g><g clip-path="url(#cp202)"><g clip-path="url(#cp203)"><g clip-path="url(#cp204)"><path  d="m160.4 169.2c-0.3 0-0.7 0.3-0.7 0.7 0 0.4 0.3 0.7 0.7 0.7 0.4 0.1 0.9 0.1 1.4 0.1 0.4 0 0.7-0.3 0.7-0.6 0-0.5-0.2-0.8-0.7-0.8-0.4 0-0.9-0.1-1.4-0.1z"/></g></g></g><g clip-path="url(#cp205)"><g clip-path="url(#cp206)"><g clip-path="url(#cp207)"><path  d="m216 143.7c-13.7 12.7-32.1 20.1-52.2 19.3v0.1c-20-0.8-37.9-9.7-50.5-23.4-12.7-13.6-20.2-32.1-19.4-52.2 0.8-20 9.6-37.9 23.3-50.5 13.7-12.7 32.2-20.2 52.2-19.4l0.1-2.9c-20.8-0.8-40.1 6.9-54.3 20.1-14.2 13.2-23.5 31.8-24.3 52.6-0.8 20.9 7 40.1 20.2 54.3l-0.1 0.1c13.2 14.2 31.8 23.4 52.7 24.2 20.8 0.8 40.1-7 54.4-20.1z"/></g></g></g><g clip-path="url(#cp208)"><g clip-path="url(#cp209)"><g clip-path="url(#cp210)"><path  d="m207.9 37.1c-0.6 0.6-0.5 1.6 0.2 2.1 2.4 2 6.8 6.4 6.8 6.4 1.9 2.1 3.6 4.2 5.2 6.4 0.3 0.4 0.7 0.6 1.2 0.6 0.3 0 0.6-0.1 0.9-0.3 0.7-0.4 0.8-1.4 0.3-2.1-1.6-2.3-5.4-6.6-5.4-6.6q-3.4-3.6-7.1-6.8c-0.7-0.5-1.6-0.4-2.1 0.3z"/></g></g></g><g clip-path="url(#cp211)"><g clip-path="url(#cp212)"><g clip-path="url(#cp213)"><path  d="m212.3 141.5c0.3-0.3 0.6-0.6 0.9-0.8l-2.1-2.2q-0.4 0.4-0.8 0.8c-0.6 0.5-0.7 1.4-0.1 2.1 0.3 0.3 0.7 0.4 1 0.5 0.4 0 0.8-0.2 1.1-0.4z"/></g></g></g><g clip-path="url(#cp214)"><g clip-path="url(#cp215)"><g clip-path="url(#cp216)"><path  d="m223.8 125.4c-0.7-0.4-1.6-0.2-2.1 0.5-2.9 4.6-6.5 8.8-10.6 12.5l2.1 2.2c4.2-3.8 7.9-8.2 11.1-13.1 0.4-0.7 0.3-1.6-0.5-2.1z"/></g></g></g><g clip-path="url(#cp217)"><g clip-path="url(#cp218)"><g clip-path="url(#cp219)"><path  d="m233.5 86.1c0.1 0 0.1 0 0.2 0 0.8-0.1 1.5-0.8 1.4-1.7-0.5-6.1-1.9-12.2-4-17.9-0.3-0.8-1.1-1.2-1.9-0.9-0.8 0.3-1.2 1.1-0.9 1.9 2 5.5 3.3 11.3 3.8 17.2 0 0.8 0.6 1.3 1.4 1.4z"/></g></g></g><g clip-path="url(#cp220)"><g clip-path="url(#cp221)"><g clip-path="url(#cp222)"><path  d="m161.4 158.8c0.8 0 1.5-0.6 1.6-1.4 0.1-0.9-0.6-1.6-1.4-1.6-5.9-0.5-11.7-1.7-17.2-3.7-0.8-0.2-1.6 0.2-1.9 1-0.3 0.8 0.1 1.6 0.9 1.9 5.8 2.1 11.8 3.3 18 3.8z"/></g></g></g><g clip-path="url(#cp223)"><g clip-path="url(#cp224)"><g clip-path="url(#cp225)"><path  d="m177.9 156.5c0.2 0.7 0.8 1.1 1.5 1.2q0.1 0 0.3-0.1c6-1.1 11.9-3.1 17.4-5.9 0.7-0.3 1-1.2 0.7-2-0.4-0.7-1.3-1-2-0.6-5.3 2.6-10.9 4.5-16.7 5.6-0.8 0.2-1.3 1-1.2 1.8z"/></g></g></g><g clip-path="url(#cp226)"><g clip-path="url(#cp227)"><g clip-path="url(#cp228)"><path  d="m116.2 137c3.3 3.6 6.9 6.7 10.9 9.5q0.4 0.2 0.8 0.3c0.5 0 1-0.2 1.3-0.7 0.5-0.7 0.3-1.6-0.4-2.1-3.8-2.6-7.2-5.7-10.4-9q-1.3-1.5-2.5-2.9c-0.5-0.6-1.5-0.7-2.1-0.2-0.7 0.6-0.7 1.5-0.2 2.2 0.8 1 1.7 1.9 2.6 2.9z"/></g></g></g><g clip-path="url(#cp229)"><g clip-path="url(#cp230)"><g clip-path="url(#cp231)"><path  d="m175 23.4c-0.2 0.8 0.4 1.6 1.2 1.7 5.8 0.9 11.6 2.5 16.9 4.9q0.3 0.1 0.6 0.1c0.6 0.1 1.1-0.3 1.4-0.9 0.3-0.7 0-1.6-0.8-2-5.6-2.5-11.6-4.2-17.6-5.1-0.8-0.1-1.6 0.5-1.7 1.3z"/></g></g></g><g clip-path="url(#cp232)"><g clip-path="url(#cp233)"><g clip-path="url(#cp234)"><path  d="m228.6 92.8c0.7-17.2-5.7-32.9-16.4-44.6-10.8-11.6-26.1-19.2-43.2-19.8-17.1-0.7-32.8 5.7-44.5 16.5-11.6 10.7-19.2 25.9-19.8 43-0.7 17.1 5.7 32.8 16.4 44.5 10.8 11.6 26 19.2 43.1 19.9l0.1-3.2c-16.2-0.6-30.6-7.8-40.9-18.9-10.2-11-16.2-25.9-15.6-42.2 0.6-16.2 7.8-30.6 18.8-40.9 11.1-10.2 26.1-16.2 42.3-15.6 16.2 0.6 30.7 7.8 40.9 18.9 10.2 11 16.3 26 15.6 42.3-0.6 16.2-7.7 30.6-18.8 40.8l2.1 2.3c11.7-10.7 19.2-26 19.9-43z"/></g></g></g><g clip-path="url(#cp235)"><g clip-path="url(#cp236)"><g clip-path="url(#cp237)"><path  d="m214.4 67.5q0.4 0.1 0.8-0.1c0.8-0.4 1.1-1.4 0.7-2.2-2-4-4.6-7.7-7.5-11.1-0.6-0.7-1.7-0.8-2.3-0.2-0.7 0.6-0.8 1.6-0.2 2.3 2.7 3.2 5.2 6.7 7.1 10.4 0.3 0.6 0.8 0.9 1.4 0.9z"/></g></g></g><g clip-path="url(#cp238)"><g clip-path="url(#cp239)"><g clip-path="url(#cp240)"><path  d="m220.2 90.3q0.1 0 0.1 0c0.9-0.1 1.7-0.8 1.6-1.7-0.1-4.5-0.8-8.9-2.1-13.3-0.2-0.8-1.1-1.4-2-1.1-0.8 0.3-1.4 1.2-1.1 2.1 1.2 4 1.9 8.2 2 12.4 0 0.9 0.7 1.5 1.5 1.6z"/></g></g></g><g clip-path="url(#cp241)"><g clip-path="url(#cp242)"><g clip-path="url(#cp243)"><path  d="m127.4 53.7c-0.6-0.6-1.7-0.5-2.3 0.2-2.9 3.4-5.5 7.1-7.5 11.1-0.5 0.8-0.1 1.8 0.7 2.2q0.3 0.2 0.6 0.2c0.7 0 1.2-0.3 1.5-0.9q3-5.7 7.2-10.5c0.6-0.6 0.5-1.7-0.2-2.3z"/></g></g></g><g clip-path="url(#cp244)"><g clip-path="url(#cp245)"><g clip-path="url(#cp246)"><path  d="m113.5 105.5c1.1 3.9 2.6 7.7 4.5 11.3 0.3 0.5 0.9 0.8 1.4 0.8 0.3 0 0.6 0 0.9-0.2 0.8-0.4 1.1-1.4 0.6-2.2-1.8-3.4-3.3-7-4.3-10.6-0.1-0.4-0.2-0.8-0.3-1.2-0.3-0.8-1.1-1.4-2-1.1-0.9 0.2-1.4 1.1-1.2 2 0.1 0.4 0.2 0.7 0.4 1.2z"/></g></g></g><g clip-path="url(#cp247)"><g clip-path="url(#cp248)"><g clip-path="url(#cp249)"><path  d="m174.9 37.3c0.1-0.9-0.5-1.7-1.5-1.8q-2.3-0.3-4.7-0.4-4.3-0.1-8.7 0.4c-0.9 0.1-1.5 0.9-1.4 1.8 0.1 0.8 0.8 1.4 1.6 1.5 0 0 0.2 0 0.2-0.1q4.1-0.5 8.2-0.3c1.5 0.1 3 0.2 4.5 0.4 0.9 0.1 1.7-0.6 1.8-1.5z"/></g></g></g><g clip-path="url(#cp250)"><g clip-path="url(#cp251)"><g clip-path="url(#cp252)"><path  d="m196.5 47.7q0.4 0.3 0.9 0.3c0.5 0.1 1-0.2 1.4-0.7 0.5-0.7 0.3-1.7-0.4-2.3-3.7-2.5-7.7-4.6-11.9-6.3-0.8-0.3-1.8 0.1-2.1 1-0.3 0.8 0.1 1.8 0.9 2.1 4 1.5 7.7 3.5 11.2 5.9z"/></g></g></g><g clip-path="url(#cp253)"><g clip-path="url(#cp254)"><g clip-path="url(#cp255)"><path  d="m147 38.7c-4.2 1.6-8.2 3.7-11.9 6.3-0.7 0.5-0.9 1.5-0.4 2.2 0.3 0.4 0.8 0.7 1.3 0.7q0.5 0 1-0.3 5.2-3.6 11.2-5.9c0.9-0.3 1.3-1.2 1-2.1-0.3-0.9-1.4-1.2-2.2-0.9z"/></g></g></g><g clip-path="url(#cp256)"><g clip-path="url(#cp257)"><g clip-path="url(#cp258)"><path  d="m116.1 78.3c0.1-0.8-0.4-1.7-1.3-1.9-0.8-0.3-1.7 0.3-1.9 1.2-0.9 3.4-1.4 7-1.5 10.6 0 0 0 0 0 0 0 0.9 0 1.8 0 2.7 0 0.9 0.7 1.6 1.5 1.6 0.1 0 0.1 0 0.1 0 0.9 0 1.6-0.7 1.6-1.6q0-1.3 0-2.6h0.1c0.1-3.3 0.6-6.7 1.4-10z"/></g></g></g><path class="a" d="m178.7 97.9c-0.9 0-1.8 0.2-2.5 0.7-0.8-0.5-1.7-0.8-2.7-0.8-1.2 0-2.4 0.4-3.2 1.3-0.4 0.4-0.4 1 0 1.4 0.4 0.4 1 0.4 1.4 0 1-0.9 2.6-0.9 3.6 0 0.4 0.5 0.7 1.1 0.7 1.8 0 0.7-0.3 1.3-0.7 1.8-0.4 0.4-0.4 1 0 1.4q0.3 0.3 0.7 0.3 0.4 0 0.7-0.3c0.9-0.9 1.3-2 1.3-3.2q0-1.1-0.5-2.1c1-0.5 2.2-0.3 3 0.4q0.3 0.3 0.7 0.3 0.4 0 0.7-0.3c0.4-0.4 0.4-1 0-1.4-0.8-0.9-2-1.3-3.2-1.3z"/><path fill-rule="evenodd" class="a" d="m186.9 94.9c1.3 1.4 2 3.3 2 5.2 0 3.3-2 6.1-5 7.1 0.2 1.3 0.1 2.5-0.4 3.8-0.6 1.3-1.7 2.4-3.1 2.9-1.6 0.7-3.2 0.7-4.7 0-1.1 1.1-2.6 1.7-4.2 1.7q-1.1 0-2.3-0.4c-1.1-0.5-2.1-1.3-2.7-2.2-0.7 0.9-1.6 1.7-2.7 2.2q-1.2 0.4-2.3 0.4c-1.6 0-3.1-0.6-4.2-1.7-1.5 0.7-3.1 0.7-4.7 0-1.4-0.5-2.5-1.6-3.1-2.9-0.5-1.3-0.7-2.5-0.4-3.8-3-1-5-3.8-5-7.1 0-1.9 0.7-3.8 2-5.2q0.4-0.4 0.8-0.7c-1.2-0.9-2-2.4-2-4 0-2.2 1.5-4.1 3.5-4.8-0.5-1.6-0.4-3.3 0.2-4.9 0.8-2 2.4-3.5 4.3-4.2 1.6-0.5 3.2-0.6 4.7-0.2q-0.1-1.2 0.4-2.4c0.5-1.2 1.5-2.2 2.8-2.6 1.6-0.6 3.3-0.4 4.6 0.6q0.6 0.4 1.1 1 0.5-0.6 1.1-1c1.3-1 3-1.2 4.6-0.6 1.2 0.4 2.3 1.4 2.8 2.6q0.5 1.2 0.4 2.4c1.5-0.4 3.1-0.3 4.7 0.2 1.9 0.7 3.5 2.2 4.3 4.2 0.6 1.6 0.7 3.3 0.2 4.9 2 0.7 3.5 2.6 3.5 4.8 0 1.6-0.8 3.1-2.1 4q0.5 0.3 0.9 0.7 0 0 0 0zm-21.4 14.6v-2.1c0-1.8-1.5-3.3-3.3-3.3-1.8 0-3.2 1.5-3.2 3.3 0 0.5-0.5 1-1 1-0.6 0-1.1-0.5-1.1-1 0-3 2.4-5.3 5.3-5.3 1.3 0 2.4 0.4 3.3 1.1v-27.5c0-0.9-0.5-1.8-1.3-2.4-0.7-0.5-1.8-0.6-2.7-0.3-0.7 0.2-1.3 0.8-1.6 1.5-0.4 1.1-0.3 2.2 0.5 3.1 0.3 0.4 0.3 1-0.1 1.4-0.3 0.4-0.9 0.4-1.3 0.1-1.5-1.2-3.5-1.5-5.4-0.9-1.4 0.5-2.5 1.6-3.1 3-0.7 2-0.3 3.6 0.2 4.6 0.2 0.3 0.1 0.7 0 1-0.2 0.3-0.5 0.5-0.9 0.5-1.6 0-2.9 1.3-2.9 2.9 0 1.4 1 2.6 2.5 2.9 0.4 0 0.8 0.4 0.8 0.8 0.1 0.5-0.2 0.9-0.6 1.1-0.7 0.3-1.4 0.8-2 1.3-1 1.1-1.5 2.4-1.5 3.8 0 2.7 1.9 4.9 4.5 5.4 0.3 0 0.6 0.2 0.7 0.5 0.2 0.3 0.2 0.6 0.1 0.9-0.4 0.7-0.6 1.9 0 3.3 0.4 0.8 1.1 1.5 1.9 1.9 1.6 0.6 2.9 0.2 3.7-0.3q0.2-0.2 0.5-0.2c0.3 0 0.6 0.2 0.8 0.4 0.9 1.2 2.6 2.1 4.8 1.3 1.4-0.6 2.4-2.1 2.4-3.8zm21.4-9.4c0-1.4-0.5-2.7-1.5-3.8-0.6-0.5-1.3-1-2-1.3-0.4-0.2-0.7-0.6-0.7-1.1 0.1-0.4 0.4-0.8 0.9-0.8 1.4-0.3 2.5-1.5 2.5-2.9 0-1.6-1.3-2.9-2.9-2.9-0.4 0-0.7-0.2-0.9-0.5-0.2-0.3-0.2-0.7 0-1 0.5-1 0.9-2.6 0.2-4.6-0.6-1.4-1.7-2.5-3.1-3-1.9-0.6-3.9-0.3-5.4 0.9-0.4 0.3-1 0.3-1.4-0.1-0.3-0.4-0.3-1 0-1.4 0.8-0.9 0.9-2 0.5-3.1-0.3-0.7-0.9-1.3-1.6-1.5q-0.5-0.2-1.1-0.2-0.9 0-1.7 0.5c-0.7 0.6-1.2 1.5-1.2 2.4v9.3c0 1.8 1.5 3.3 3.3 3.3 1.8 0 3.2-1.5 3.2-3.3 0-0.5 0.5-1 1-1 0.6 0 1 0.5 1 1 0 2.9-2.3 5.3-5.2 5.3-1.3 0-2.4-0.4-3.3-1.1v20.3c0 1.7 1 3.2 2.4 3.8 2.2 0.8 3.9-0.1 4.8-1.3 0.3-0.4 0.9-0.5 1.3-0.2 0.8 0.5 2.1 0.9 3.6 0.3 0.9-0.4 1.6-1.1 2-1.9 0.6-1.4 0.3-2.6 0-3.3-0.1-0.3-0.1-0.6 0.1-0.9 0.1-0.3 0.4-0.5 0.7-0.5 2.6-0.5 4.5-2.7 4.5-5.4z"/><path class="a" d="m158.9 93.2c0 0.6 0.5 1.1 1 1.1 0.6 0 1-0.5 1-1.1 0-1.6-0.8-3-2-3.8q0 0 0 0c1.7-1.7 1.7-4.6 0-6.4-0.4-0.4-1.1-0.4-1.5 0-0.4 0.4-0.4 1 0 1.4 1 1 1 2.6 0 3.6-0.9 1-2.5 1-3.5 0-0.4-0.4-1-0.4-1.4 0-0.4 0.4-0.4 1 0 1.4 0.9 0.9 2 1.3 3.2 1.3q0.2 0 0.5 0 0.1 0 0.2 0c1.4 0 2.5 1.2 2.5 2.5z"/><g clip-path="url(#cp259)"><path fill-rule="evenodd" class="a" d="m197.1 94.2v14.3h9.1c0.6 0 1.1 0.4 1.1 1 0 0.6-0.5 1-1.1 1h-9.1v8.2c0 2.8-2.3 5.1-5.1 5.1h-8.2v9.1c0 0.6-0.4 1.1-1 1.1-0.6 0-1-0.5-1-1.1v-9.1h-14.3v9.1c0 0.6-0.4 1.1-1 1.1-0.6 0-1-0.5-1-1.1v-9.1h-14.3v5.3c0.9 0.4 1.5 1.3 1.5 2.3 0 1.4-1.1 2.6-2.5 2.6-1.4 0-2.6-1.2-2.6-2.6 0-1 0.7-1.9 1.6-2.3v-5.3h-8.2c-2.8 0-5.1-2.3-5.1-5.1v-8.2h-5.3c-0.4 0.9-1.3 1.5-2.3 1.5-1.4 0-2.6-1.1-2.6-2.5 0-1.4 1.2-2.6 2.6-2.6 1 0 1.9 0.7 2.3 1.6h5.3v-14.3h-9.2c-0.5 0-1-0.5-1-1 0-0.6 0.5-1 1-1h9.2v-14.3h-9.2c-0.5 0-1-0.5-1-1 0-0.6 0.5-1 1-1h9.2v-8.2c0-2.8 2.3-5.1 5.1-5.1h8.2v-5.3c-0.9-0.4-1.6-1.3-1.6-2.3 0-1.4 1.2-2.6 2.6-2.6 1.4 0 2.5 1.2 2.5 2.6 0 1-0.6 1.9-1.5 2.3v5.3h14.3v-9.2c0-0.5 0.4-1 1-1 0.6 0 1 0.5 1 1v9.2h14.3v-9.2c0-0.5 0.4-1 1-1 0.6 0 1 0.5 1 1v9.2h8.2c2.8 0 5.1 2.3 5.1 5.1v8.2h5.3c0.4-0.9 1.3-1.6 2.3-1.6 1.4 0 2.6 1.2 2.6 2.6 0 1.4-1.2 2.5-2.6 2.5-1 0-1.9-0.6-2.3-1.5h-5.3v14.3h9.1c0.6 0 1.1 0.4 1.1 1 0 0.5-0.5 1-1.1 1zm-2-26.5c0-1.7-1.4-3.1-3.1-3.1h-50.9c-1.7 0-3.1 1.4-3.1 3.1v51c0 1.7 1.4 3 3.1 3h50.9c1.7 0 3.1-1.3 3.1-3z"/></g><path fill-rule="evenodd" d="m10.2 197.1q4.6 0 6.8 2.6 2.2 2.7 2.2 7.2v19.9q0 4.5-2.2 7.1-2.2 2.6-6.8 2.6h-9.2v-39.4zm-0.1 35.4q2.4 0 3.6-1.4 1.1-1.5 1.1-4.2v-20.2q0-2.7-1.1-4.2-1.2-1.4-3.6-1.4h-4.7v31.4z"/><path  d="m35.8 197.1v39.4h-4.4v-39.4z"/><path  d="m57 196.7q4.6 0 6.7 2.7 2.2 2.7 2.2 7.2v3.4h-4.2v-3.6q0-2.7-1.1-4.2-1.1-1.5-3.5-1.5-2.4 0-3.5 1.5-1.1 1.5-1.1 4.2v20.8q0 2.7 1.1 4.2 1.1 1.5 3.5 1.5 2.4 0 3.5-1.5 1.1-1.5 1.1-4.2v-7.9h-4v-3.9h8.2v11.6q0 4.5-2.2 7.2-2.1 2.7-6.7 2.7-4.5 0-6.7-2.7-2.1-2.7-2.1-7.2v-20.4q0-2.2 0.5-4.1 0.5-1.8 1.6-3.1 1.1-1.3 2.8-2 1.6-0.7 3.9-0.7z"/><path  d="m82.6 197.1v39.4h-4.4v-39.4z"/><path  d="m101 236.5v-35.4h-7.2v-4h18.9v4h-7.3v35.4z"/><path  d="m132.4 196.7q4.5 0 6.7 2.7 2.1 2.7 2.1 7.2v3.6h-4.1v-3.8q0-2.7-1.1-4.2-1.1-1.5-3.5-1.5-2.4 0-3.5 1.5-1.1 1.5-1.1 4.2v20.8q0 2.7 1.1 4.2 1.1 1.5 3.5 1.5 2.4 0 3.5-1.5 1.1-1.5 1.1-4.2v-5.1h4.1v4.9q0 4.5-2.1 7.2-2.2 2.7-6.7 2.7-4.5 0-6.7-2.7-2.2-2.7-2.2-7.2v-20.4q0-2.2 0.5-4.1 0.6-1.8 1.7-3.1 1.1-1.3 2.7-2 1.7-0.7 4-0.7z"/><path  d="m167.4 214.6v3.9h-9.6v14h11.8v4h-16.2v-39.4h16.2v4h-11.8v13.5z"/><path  d="m185.7 236.5h-3.9v-39.4h5.5l9.2 28.5v-28.5h3.8v39.4h-4.5l-10.1-31.9z"/><path  d="m218.7 236.5v-35.4h-7.2v-4h18.9v4h-7.3v35.4z"/><path  d="m245.8 227.2q0 2.7 1 4.2 1.1 1.5 3.6 1.5 2.3 0 3.4-1.5 1.1-1.5 1.1-4.2v-30.1h4.1v29.9q0 4.5-2.1 7.2-2.1 2.8-6.7 2.8-4.5 0-6.6-2.8-2.2-2.7-2.2-7.2v-29.9h4.4z"/><path fill-rule="evenodd" d="m280.3 197.1q4.7 0 6.7 2.3 2.1 2.3 2.1 6.7v3.2q0 3.3-1.2 5.3-1.2 2-3.7 2.8 2.7 0.8 3.8 2.9 1.1 2.1 1.1 5.3v6.2q0 1.3 0.2 2.5 0.1 1.2 0.6 2.2h-4.4q-0.4-0.8-0.6-1.8-0.1-1-0.1-3v-6.2q0-3.3-1.5-4.6-1.5-1.2-4.3-1.2h-3.1v16.8h-4.4v-39.4zm-1.1 18.6q2.6 0 4.1-1.1 1.5-1.1 1.5-4.3v-3.8q0-2.7-1.1-4-1-1.4-3.5-1.4h-4.3v14.6z"/><path  d="m308.8 222.4l-8.3-25.3h4.6l6.1 19.4 6.2-19.4h4.2l-8.4 25.3v14.1h-4.4z"/><path fill-rule="evenodd" d="m10.4 258.7v-5.1q0-0.9 0.3-1.6 0.3-0.7 0.8-1.1 0.5-0.5 1.3-0.8 0.7-0.3 1.7-0.3 0.9 0 1.6 0.3 0.8 0.3 1.3 0.8 0.5 0.4 0.8 1.1 0.3 0.7 0.3 1.6v5.1q0 0.8-0.3 1.5-0.3 0.7-0.8 1.2-0.5 0.5-1.3 0.8-0.7 0.2-1.6 0.2-1 0-1.7-0.2-0.8-0.3-1.3-0.8-0.5-0.5-0.8-1.2-0.3-0.7-0.3-1.5zm2.1 0q0 0.8 0.5 1.3 0.6 0.5 1.5 0.5 0.8 0 1.4-0.5 0.5-0.5 0.5-1.3v-5.1q0-0.9-0.5-1.4-0.6-0.5-1.4-0.5-0.9 0-1.5 0.5-0.5 0.5-0.5 1.4zm1.2-3.3q0-0.4 0.2-0.7 0.2-0.2 0.6-0.2 0.3 0 0.5 0.2 0.3 0.3 0.3 0.7v1.7q0 0.4-0.3 0.6-0.2 0.3-0.5 0.3-0.4 0-0.6-0.3-0.2-0.2-0.2-0.6z"/><path  d="m23.3 255.6h6.8v2h-6.8z"/><path  d="m35.2 260.4h3.2v-7.3q0-0.3 0-0.5 0.1-0.2 0.1-0.4 0-0.2 0-0.4-0.1 0.1-0.2 0.2-0.2 0.2-0.6 0.4l-2.3 1.6v-2.1l2.7-1.9h2.5v10.4h2.6v1.8h-8z"/><path fill-rule="evenodd" d="m47.1 258.7v-5.1q0-0.9 0.3-1.6 0.3-0.7 0.8-1.1 0.6-0.5 1.3-0.8 0.8-0.3 1.7-0.3 0.9 0 1.7 0.3 0.7 0.3 1.2 0.8 0.6 0.4 0.9 1.1 0.3 0.7 0.3 1.6v5.1q0 0.8-0.3 1.5-0.3 0.7-0.9 1.2-0.5 0.5-1.3 0.8-0.7 0.2-1.6 0.2-0.9 0-1.7-0.2-0.7-0.3-1.3-0.8-0.5-0.5-0.8-1.2-0.3-0.7-0.3-1.5zm2.1 0q0 0.8 0.5 1.3 0.6 0.5 1.5 0.5 0.9 0 1.4-0.5 0.6-0.5 0.6-1.3v-5.1q0-0.9-0.6-1.4-0.5-0.5-1.4-0.5-0.9 0-1.5 0.5-0.5 0.5-0.5 1.4zm1.2-3.3q0-0.4 0.2-0.7 0.2-0.2 0.6-0.2 0.3 0 0.6 0.2 0.2 0.3 0.2 0.7v1.7q0 0.4-0.2 0.6-0.3 0.3-0.6 0.3-0.4 0-0.6-0.3-0.2-0.2-0.2-0.6z"/><path fill-rule="evenodd" d="m59.4 258.7v-5.1q0-0.9 0.2-1.6 0.3-0.7 0.9-1.1 0.5-0.5 1.2-0.8 0.8-0.3 1.7-0.3 1 0 1.7 0.3 0.8 0.3 1.3 0.8 0.5 0.4 0.8 1.1 0.3 0.7 0.3 1.6v5.1q0 0.8-0.3 1.5-0.3 0.7-0.8 1.2-0.6 0.5-1.3 0.8-0.7 0.2-1.7 0.2-0.9 0-1.7-0.2-0.7-0.3-1.2-0.8-0.6-0.5-0.9-1.2-0.2-0.7-0.2-1.5zm2.1 0q-0.1 0.8 0.5 1.3 0.5 0.5 1.4 0.5 0.9 0 1.5-0.5 0.5-0.5 0.5-1.3v-5.1q0-0.9-0.5-1.4-0.6-0.5-1.5-0.5-0.9 0-1.4 0.5-0.6 0.5-0.5 1.4zm1.1-3.3q0-0.4 0.3-0.7 0.2-0.2 0.5-0.2 0.4 0 0.6 0.2 0.2 0.3 0.2 0.7v1.7q0 0.4-0.2 0.6-0.2 0.3-0.6 0.3-0.3 0-0.5-0.3-0.3-0.2-0.3-0.6z"/><path fill-rule="evenodd" d="m83.8 258.7v-5.1q0-0.9 0.3-1.6 0.3-0.7 0.9-1.1 0.5-0.5 1.2-0.8 0.8-0.3 1.7-0.3 0.9 0 1.7 0.3 0.7 0.3 1.3 0.8 0.5 0.4 0.8 1.1 0.3 0.7 0.3 1.6v5.1q0 1.1-0.5 2-0.5 0.8-1.5 1.3l2.1 3.1h-2.3l-1.8-2.7q-0.9 0-1.6-0.2-0.8-0.3-1.3-0.7-0.6-0.5-0.9-1.2-0.4-0.7-0.4-1.6zm4.1 1.8q0.9 0 1.4-0.5 0.6-0.5 0.6-1.3v-5.1q0-0.9-0.6-1.4-0.5-0.5-1.4-0.5-0.9 0-1.4 0.5-0.5 0.5-0.5 1.4v5.1q0 0.8 0.5 1.3 0.5 0.5 1.4 0.5z"/><path  d="m100.2 262.4q-1.9 0-2.9-1-1.1-0.9-1.1-2.7v-8.7h2.2v8.7q0 0.9 0.4 1.4 0.5 0.5 1.4 0.5 0.8 0 1.3-0.5 0.4-0.5 0.4-1.4v-8.7h2.2v8.7q0 1.8-1.1 2.7-1 1-2.8 1z"/><path  d="m108.7 262.2v-1.8h2.6v-8.5h-2.6v-1.9h7.4v1.9h-2.6v8.5h2.6v1.8z"/><path  d="m124.7 249.8q0.9 0 1.7 0.3 0.7 0.2 1.2 0.7 0.5 0.5 0.8 1.2 0.3 0.6 0.4 1.4h-2.1q-0.1-0.8-0.6-1.2-0.5-0.5-1.4-0.5-0.8 0-1.4 0.5-0.5 0.5-0.5 1.4v5.1q0 0.8 0.5 1.3 0.5 0.5 1.4 0.5 0.9 0 1.4-0.5 0.5-0.4 0.6-1.2h2.1q-0.1 1.7-1.2 2.7-1.1 0.9-2.9 0.9-0.9 0-1.6-0.2-0.8-0.3-1.3-0.8-0.5-0.5-0.8-1.2-0.3-0.7-0.3-1.5v-5.1q0-0.9 0.3-1.6 0.3-0.7 0.8-1.1 0.5-0.5 1.3-0.8 0.7-0.3 1.6-0.3z"/><path  d="m135.2 250v5h1.6l2.3-5h2.4l-2.9 5.9 3 6.3h-2.4l-2.4-5.3h-1.6v5.3h-2.1v-12.2z"/><path  d="m147.8 250v10.3h5.4v1.9h-7.5v-12.2z"/><path  d="m156.6 250h2.3l2.1 4.8q0.1 0.2 0.2 0.5 0.1 0.3 0.1 0.5 0 0.2 0.1 0.4h0.1q0-0.2 0.1-0.4 0-0.2 0.1-0.5 0-0.3 0.1-0.5l2.1-4.8h2.2l-3.7 8v4.2h-2.1v-4.2z"/><path fill-rule="evenodd" d="m181.2 262.2l3.3-12.2h2.8l3.3 12.2h-2.2l-0.8-3h-3.5l-0.7 3zm3.3-4.7h2.7l-1-4.4q-0.1-0.3-0.2-0.6 0-0.3-0.1-0.5 0-0.3 0-0.6h-0.1q0 0.3-0.1 0.6 0 0.2-0.1 0.5 0 0.3-0.1 0.6z"/><path  d="m196.8 250l2.9 8.2q0.1 0.2 0.2 0.6 0.1 0.3 0.2 0.7 0 0.3 0.1 0.7h0.2q0 0-0.1-0.2 0-0.3 0-0.7-0.1-0.3-0.1-0.8-0.1-0.5-0.1-1v-7.5h1.9v12.2h-2.6l-2.9-8.1q-0.1-0.4-0.2-0.7-0.1-0.4-0.1-0.7-0.1-0.4-0.1-0.7h-0.2q0 0.4 0.1 0.9 0 0.4 0 0.8 0.1 0.5 0.1 1v7.5h-1.9v-12.2z"/><path fill-rule="evenodd" d="m206.5 262.2v-12.2h3.8q0.9 0 1.7 0.3 0.7 0.3 1.3 0.8 0.5 0.5 0.8 1.2 0.3 0.7 0.3 1.6v4.5q0 0.8-0.3 1.6-0.3 0.7-0.8 1.2-0.6 0.5-1.3 0.8-0.8 0.2-1.7 0.2zm3.7-1.9q1 0 1.5-0.5 0.6-0.6 0.6-1.4v-4.5q0-0.9-0.6-1.4-0.5-0.5-1.5-0.5h-1.6v8.3z"/><path  d="m231.2 262.2v-12.2h7.5v1.9h-5.4v3.1h4.8v1.9h-4.8v3.5h5.4v1.8z"/><path fill-rule="evenodd" d="m242.4 262.2l3.3-12.2h2.9l3.2 12.2h-2.2l-0.7-3h-3.6l-0.7 3zm3.3-4.7h2.7l-1-4.4q-0.1-0.3-0.1-0.6-0.1-0.3-0.1-0.5-0.1-0.3-0.1-0.6h-0.1q0 0.3-0.1 0.6 0 0.2 0 0.5-0.1 0.3-0.2 0.6z"/><path  d="m259.3 262.4q-0.9 0-1.6-0.2-0.8-0.3-1.3-0.7-0.6-0.5-0.9-1.1-0.3-0.6-0.3-1.4h2.1q0.1 0.7 0.6 1.2 0.6 0.4 1.5 0.4 0.9 0 1.4-0.5 0.5-0.4 0.5-1.1 0-0.6-0.3-1.1-0.4-0.4-1.2-0.7l-1.2-0.3q-3.2-0.9-3.2-3.7 0-0.7 0.3-1.4 0.3-0.6 0.8-1.1 0.5-0.4 1.2-0.7 0.7-0.2 1.7-0.2 1.7 0 2.8 0.9 1 0.9 1.1 2.5h-2.2q0-0.7-0.5-1.1-0.5-0.4-1.3-0.4-0.8 0-1.3 0.4-0.5 0.4-0.5 1 0 1.2 1.5 1.7l1.4 0.3q1.5 0.5 2.3 1.4 0.8 1 0.8 2.4 0 0.8-0.3 1.4-0.3 0.7-0.9 1.2-0.5 0.4-1.3 0.7-0.7 0.2-1.7 0.2z"/><path  d="m267.9 262.2v-1.8h2.6v-8.5h-2.6v-1.9h7.4v1.9h-2.7v8.5h2.7v1.8z"/><path  d="m282.5 250v10.3h5.4v1.9h-7.5v-12.2z"/><path  d="m291.3 250h2.3l2.1 4.8q0.1 0.2 0.2 0.5 0 0.3 0.1 0.5 0 0.2 0 0.4h0.1q0.1-0.2 0.1-0.4 0.1-0.2 0.1-0.5 0.1-0.3 0.2-0.5l2.1-4.8h2.2l-3.7 8v4.2h-2.1v-4.2z"/></svg>